<svg width="119" height="100" viewBox="0 0 119 100" fill="none" xmlns="http://www.w3.org/2000/svg">
<path opacity="0.1" d="M105.69 14.7157V73.6448C105.69 75.5639 104.133 77.1215 102.213 77.1215H16.4561C14.537 77.1215 12.9795 75.5639 12.9795 73.6448V14.7157C12.9795 12.7966 14.537 11.239 16.4561 11.239H102.213C104.133 11.239 105.69 12.7966 105.69 14.7157Z" fill="url(#paint0_linear_1_462)"/>
<path d="M72.4785 98.8411H46.1904L51.4471 78.0044H67.2218L72.4785 98.8411Z" fill="white"/>
<path d="M105.69 19.5853V78.5145C105.69 80.4336 104.133 81.9911 102.213 81.9911H16.4561C14.537 81.9911 12.9795 80.4336 12.9795 78.5145V19.5853C12.9795 17.6662 14.537 16.1086 16.4561 16.1086H102.213C104.133 16.1086 105.69 17.6662 105.69 19.5853Z" fill="white"/>
<path d="M99.1998 70.3095H49.5996V34.6321C49.5996 34.2473 49.9102 33.9368 50.2949 33.9368H98.5045C98.8892 33.9368 99.1998 34.2473 99.1998 34.6321V70.3095Z" fill="white"/>
<path d="M99.1998 38.8296H49.5996V34.6321C49.5996 34.2473 49.9102 33.9368 50.2949 33.9368H98.5045C98.8892 33.9368 99.1998 34.2473 99.1998 34.6321V38.8296Z" fill="#6583FE" fill-opacity="0.3"/>
<path fill-rule="evenodd" clip-rule="evenodd" d="M50.7592 35.0956V69.1505H98.0416V35.0956H50.7592ZM48.4414 34.632C48.4414 33.6073 49.2708 32.7778 50.2956 32.7778H98.5051C99.5299 32.7778 100.359 33.6073 100.359 34.632V71.4683H48.4414V34.632Z" fill="url(#paint1_linear_1_462)"/>
<path d="M105.69 27.2733V19.5853C105.69 17.6662 104.133 16.1086 102.213 16.1086H16.4561C14.537 16.1086 12.9795 17.6662 12.9795 19.5853V27.2733H105.69Z" fill="white"/>
<path d="M12.9795 70.3096V78.5121C12.9795 80.4313 14.537 81.9888 16.4561 81.9888H102.213C104.133 81.9888 105.69 80.4313 105.69 78.5121V70.3096H12.9795Z" fill="white"/>
<path d="M21.8054 20.5146C21.1657 20.5146 20.6465 21.0338 20.6465 21.6735V21.7083C20.6465 22.348 21.1657 22.8672 21.8054 22.8672C22.4451 22.8672 22.9643 22.348 22.9643 21.7083V21.6735C22.9643 21.0338 22.4451 20.5146 21.8054 20.5146Z" fill="url(#paint2_linear_1_462)"/>
<path d="M26.2858 20.5146C25.6461 20.5146 25.127 21.0338 25.127 21.6735V21.7083C25.127 22.348 25.6461 22.8672 26.2858 22.8672C26.9255 22.8672 27.4447 22.348 27.4447 21.7083V21.6735C27.4447 21.0338 26.9255 20.5146 26.2858 20.5146Z" fill="url(#paint3_linear_1_462)"/>
<path d="M30.7634 20.5146C30.1237 20.5146 29.6045 21.0338 29.6045 21.6735V21.7083C29.6045 22.348 30.1237 22.8672 30.7634 22.8672C31.4031 22.8672 31.9223 22.348 31.9223 21.7083V21.6735C31.9223 21.0338 31.4031 20.5146 30.7634 20.5146Z" fill="url(#paint4_linear_1_462)"/>
<path d="M102.213 14.9497H16.4558C13.8993 14.9497 11.8203 17.0287 11.8203 19.5852V27.2733C11.8203 27.913 12.3395 28.4321 12.9792 28.4321H104.531V69.153H14.1381V33.6564C14.1381 33.0167 13.6189 32.4975 12.9792 32.4975C12.3395 32.4975 11.8203 33.0167 11.8203 33.6564V78.5121C11.8203 81.0686 13.8993 83.1476 16.4558 83.1476H48.9532L45.2865 97.68H41.7334C41.0937 97.68 40.5745 98.1992 40.5745 98.8389C40.5745 99.4786 41.0937 99.9978 41.7334 99.9978H46.1881C46.7189 99.9978 47.1825 99.6362 47.3123 99.1217L51.3429 83.1453H67.3215L70.9882 97.6777L52.5713 97.68C51.9316 97.68 51.4124 98.1992 51.4124 98.8389C51.4124 99.4786 51.9316 99.9978 52.5713 99.9978L76.931 99.9955C77.5707 99.9955 78.0899 99.4763 78.0899 98.8366C78.0899 98.1969 77.5707 97.6777 76.931 97.6777H73.3802L69.7135 83.1453H102.213C104.77 83.1453 106.849 81.0663 106.849 78.5098V19.5852C106.849 17.0287 104.77 14.9497 102.213 14.9497ZM14.1381 26.1144V19.5852C14.1381 18.3081 15.1788 17.2675 16.4558 17.2675H102.213C103.49 17.2675 104.531 18.3081 104.531 19.5852V26.1144H14.1381ZM102.213 80.8299H16.4558C15.1788 80.8299 14.1381 79.7892 14.1381 78.5121V71.4684H104.531V78.5121C104.531 79.7915 103.493 80.8299 102.213 80.8299Z" fill="url(#paint5_linear_1_462)"/>
<path d="M33.1482 52.421C38.2864 52.421 42.4517 48.2557 42.4517 43.1175C42.4517 37.9793 38.2864 33.814 33.1482 33.814C28.0101 33.814 23.8447 37.9793 23.8447 43.1175C23.8447 48.2557 28.0101 52.421 33.1482 52.421Z" fill="#6583FE" fill-opacity="0.3"/>
<path d="M37.0102 41.7778C37.0102 39.6547 35.2834 37.928 33.1604 37.928C31.0373 37.928 29.3105 39.6547 29.3105 41.7778C29.3105 42.8254 29.7324 43.7757 30.4115 44.4687C29.7301 45.164 29.3105 46.1143 29.3105 47.1596C29.3105 47.7993 29.8297 48.3185 30.4694 48.3185C31.1091 48.3185 31.6283 47.7993 31.6283 47.1596C31.6283 46.3137 32.3167 45.6276 33.1604 45.6276C34.004 45.6276 34.6924 46.316 34.6924 47.1596C34.6924 47.7993 35.2116 48.3185 35.8513 48.3185C36.491 48.3185 37.0102 47.7993 37.0102 47.1596C37.0102 46.112 36.5883 45.1617 35.9069 44.4687C36.5883 43.7757 37.0102 42.8254 37.0102 41.7778ZM33.1604 40.2457C34.0063 40.2457 34.6924 40.9341 34.6924 41.7778C34.6924 42.6215 34.004 43.3098 33.1604 43.3098C32.3167 43.3098 31.6283 42.6215 31.6283 41.7778C31.6283 40.9341 32.3144 40.2457 33.1604 40.2457Z" fill="url(#paint6_linear_1_462)"/>
<path d="M89.3097 50.0707H59.4894C57.6745 50.0707 56.2051 48.599 56.2051 46.7865C56.2051 44.9717 57.6769 43.5022 59.4894 43.5022H89.3074C91.1222 43.5022 92.5917 44.974 92.5917 46.7865C92.5917 48.599 91.1245 50.0707 89.3097 50.0707Z" fill="#6583FE" fill-opacity="0.3"/>
<path d="M70.4802 48.1332C71.1958 48.1332 71.7758 47.5532 71.7758 46.8376C71.7758 46.1221 71.1958 45.542 70.4802 45.542C69.7646 45.542 69.1846 46.1221 69.1846 46.8376C69.1846 47.5532 69.7646 48.1332 70.4802 48.1332Z" fill="url(#paint7_linear_1_462)"/>
<path d="M74.4001 48.1332C75.1157 48.1332 75.6958 47.5532 75.6958 46.8376C75.6958 46.1221 75.1157 45.542 74.4001 45.542C73.6846 45.542 73.1045 46.1221 73.1045 46.8376C73.1045 47.5532 73.6846 48.1332 74.4001 48.1332Z" fill="url(#paint8_linear_1_462)"/>
<path d="M78.3191 45.542C79.0353 45.542 79.6147 46.1214 79.6147 46.8376C79.6147 47.5538 79.0353 48.1332 78.3191 48.1332C77.6029 48.1332 77.0234 47.5538 77.0234 46.8376C77.0234 46.1214 77.6029 45.542 78.3191 45.542Z" fill="url(#paint9_linear_1_462)"/>
<path d="M89.3097 59.226H59.4894C57.6745 59.226 56.2051 57.7542 56.2051 55.9417C56.2051 54.1269 57.6769 52.6575 59.4894 52.6575H89.3074C91.1222 52.6575 92.5917 54.1293 92.5917 55.9417C92.5917 57.7542 91.1245 59.226 89.3097 59.226Z" fill="#6583FE" fill-opacity="0.3"/>
<path d="M70.4802 57.2883C71.1958 57.2883 71.7758 56.7082 71.7758 55.9927C71.7758 55.2771 71.1958 54.697 70.4802 54.697C69.7646 54.697 69.1846 55.2771 69.1846 55.9927C69.1846 56.7082 69.7646 57.2883 70.4802 57.2883Z" fill="url(#paint10_linear_1_462)"/>
<path d="M74.4001 57.2883C75.1157 57.2883 75.6958 56.7082 75.6958 55.9927C75.6958 55.2771 75.1157 54.697 74.4001 54.697C73.6846 54.697 73.1045 55.2771 73.1045 55.9927C73.1045 56.7082 73.6846 57.2883 74.4001 57.2883Z" fill="url(#paint11_linear_1_462)"/>
<path d="M78.3191 54.697C79.0353 54.697 79.6147 55.2765 79.6147 55.9927C79.6147 56.7089 79.0353 57.2883 78.3191 57.2883C77.6029 57.2883 77.0234 56.7089 77.0234 55.9927C77.0234 55.2765 77.6029 54.697 78.3191 54.697Z" fill="url(#paint12_linear_1_462)"/>
<path d="M79.0122 66.1398H69.8408C69.4561 66.1398 69.1455 65.8292 69.1455 65.4445V62.7791C69.1455 62.3943 69.4561 62.0837 69.8408 62.0837H79.0122C79.397 62.0837 79.7076 62.3943 79.7076 62.7791V65.4445C79.7076 65.8292 79.3947 66.1398 79.0122 66.1398Z" fill="#6583FE"/>
<path d="M40.8756 58.3661H25.4416C24.7857 58.3661 24.2549 57.8353 24.2549 57.1794C24.2549 56.5234 24.7857 55.9927 25.4416 55.9927H40.8756C41.5315 55.9927 42.0623 56.5234 42.0623 57.1794C42.0623 57.8353 41.5315 58.3661 40.8756 58.3661Z" fill="url(#paint13_linear_1_462)"/>
<path d="M36.7035 62.7699H29.6135C28.9575 62.7699 28.4268 62.2391 28.4268 61.5832C28.4268 60.9273 28.9575 60.3965 29.6135 60.3965H36.7035C37.3594 60.3965 37.8902 60.9273 37.8902 61.5832C37.8902 62.2391 37.3594 62.7699 36.7035 62.7699Z" fill="url(#paint14_linear_1_462)"/>
<path d="M86.7321 95.7469C86.4354 95.7469 86.1387 95.6333 85.9116 95.4085L83.3644 92.8613C82.9124 92.4093 82.9124 91.6746 83.3644 91.2226L85.9116 88.6754C86.3636 88.2234 87.0983 88.2234 87.5502 88.6754L90.0975 91.2226C90.5494 91.6746 90.5494 92.4093 90.0975 92.8613L87.5502 95.4085C87.3254 95.6333 87.0287 95.7469 86.7321 95.7469ZM85.8235 92.0408L86.7321 92.9493L87.6406 92.0408L86.7321 91.1322L85.8235 92.0408Z" fill="#6583FE"/>
<path d="M30.4665 12.7849C30.1698 12.7849 29.8731 12.6713 29.646 12.4465L27.0987 9.89693C26.6468 9.44496 26.6468 8.71023 27.0987 8.25827L29.646 5.71104C30.0979 5.25908 30.8327 5.25908 31.2846 5.71104L33.8318 8.25827C34.2838 8.71023 34.2838 9.44496 33.8318 9.89693L31.2869 12.4465C31.0598 12.6736 30.7631 12.7849 30.4665 12.7849ZM29.5579 9.07876L30.4665 9.98732L31.375 9.07876L30.4665 8.17019L29.5579 9.07876Z" fill="#6583FE"/>
<path d="M42.0622 7.41463C41.7655 7.41463 41.4688 7.30106 41.2417 7.07623L38.6944 4.52901C38.2425 4.07704 38.2425 3.34231 38.6944 2.89035L41.2417 0.343124C41.6936 -0.108841 42.4284 -0.108841 42.8803 0.343124L45.4275 2.89035C45.8795 3.34231 45.8795 4.07704 45.4275 4.52901L42.8803 7.07623C42.6555 7.30106 42.3588 7.41463 42.0622 7.41463ZM41.1536 3.7062L42.0622 4.61477L42.9707 3.7062L42.0622 2.79764L41.1536 3.7062Z" fill="#6583FE"/>
<path d="M95.1486 8.68931C94.5089 8.68931 93.9897 8.17013 93.9897 7.53042C93.9897 6.76092 93.3639 6.13513 92.5944 6.13513C91.9547 6.13513 91.4355 5.61595 91.4355 4.97624C91.4355 4.33654 91.9547 3.81736 92.5944 3.81736C93.3639 3.81736 93.9897 3.19156 93.9897 2.42207C93.9897 1.78236 94.5089 1.26318 95.1486 1.26318C95.7883 1.26318 96.3075 1.78236 96.3075 2.42207C96.3075 3.19156 96.9333 3.81736 97.7028 3.81736C98.3425 3.81736 98.8617 4.33654 98.8617 4.97624C98.8617 5.61595 98.3425 6.13513 97.7028 6.13513C96.9333 6.13513 96.3075 6.76092 96.3075 7.53042C96.3075 8.17013 95.7883 8.68931 95.1486 8.68931Z" fill="#6583FE"/>
<defs>
<linearGradient id="paint0_linear_1_462" x1="101.816" y1="11.239" x2="96.6418" y2="83.1415" gradientUnits="userSpaceOnUse">
<stop stop-color="#61DCDF"/>
<stop offset="1" stop-color="#886CFF"/>
</linearGradient>
<linearGradient id="paint1_linear_1_462" x1="98.1896" y1="32.7778" x2="95.0049" y2="74.982" gradientUnits="userSpaceOnUse">
<stop stop-color="#61DCDF"/>
<stop offset="1" stop-color="#886CFF"/>
</linearGradient>
<linearGradient id="paint2_linear_1_462" x1="22.8674" y1="20.5146" x2="22.6049" y2="23.0685" gradientUnits="userSpaceOnUse">
<stop stop-color="#61DCDF"/>
<stop offset="1" stop-color="#886CFF"/>
</linearGradient>
<linearGradient id="paint3_linear_1_462" x1="27.3479" y1="20.5146" x2="27.0854" y2="23.0685" gradientUnits="userSpaceOnUse">
<stop stop-color="#61DCDF"/>
<stop offset="1" stop-color="#886CFF"/>
</linearGradient>
<linearGradient id="paint4_linear_1_462" x1="31.8254" y1="20.5146" x2="31.5629" y2="23.0685" gradientUnits="userSpaceOnUse">
<stop stop-color="#61DCDF"/>
<stop offset="1" stop-color="#886CFF"/>
</linearGradient>
<linearGradient id="paint5_linear_1_462" x1="102.877" y1="14.9497" x2="94.4911" y2="107.49" gradientUnits="userSpaceOnUse">
<stop stop-color="#61DCDF"/>
<stop offset="1" stop-color="#886CFF"/>
</linearGradient>
<linearGradient id="paint6_linear_1_462" x1="36.6884" y1="37.928" x2="35.1593" y2="49.1177" gradientUnits="userSpaceOnUse">
<stop stop-color="#61DCDF"/>
<stop offset="1" stop-color="#886CFF"/>
</linearGradient>
<linearGradient id="paint7_linear_1_462" x1="71.6675" y1="45.542" x2="71.3826" y2="48.3558" gradientUnits="userSpaceOnUse">
<stop stop-color="#61DCDF"/>
<stop offset="1" stop-color="#886CFF"/>
</linearGradient>
<linearGradient id="paint8_linear_1_462" x1="75.5875" y1="45.542" x2="75.3025" y2="48.3558" gradientUnits="userSpaceOnUse">
<stop stop-color="#61DCDF"/>
<stop offset="1" stop-color="#886CFF"/>
</linearGradient>
<linearGradient id="paint9_linear_1_462" x1="79.5064" y1="45.542" x2="79.2215" y2="48.3558" gradientUnits="userSpaceOnUse">
<stop stop-color="#61DCDF"/>
<stop offset="1" stop-color="#886CFF"/>
</linearGradient>
<linearGradient id="paint10_linear_1_462" x1="71.6675" y1="54.697" x2="71.3826" y2="57.5109" gradientUnits="userSpaceOnUse">
<stop stop-color="#61DCDF"/>
<stop offset="1" stop-color="#886CFF"/>
</linearGradient>
<linearGradient id="paint11_linear_1_462" x1="75.5875" y1="54.697" x2="75.3025" y2="57.5109" gradientUnits="userSpaceOnUse">
<stop stop-color="#61DCDF"/>
<stop offset="1" stop-color="#886CFF"/>
</linearGradient>
<linearGradient id="paint12_linear_1_462" x1="79.5064" y1="54.697" x2="79.2215" y2="57.5109" gradientUnits="userSpaceOnUse">
<stop stop-color="#61DCDF"/>
<stop offset="1" stop-color="#886CFF"/>
</linearGradient>
<linearGradient id="paint13_linear_1_462" x1="41.3181" y1="55.9927" x2="41.283" y2="58.5959" gradientUnits="userSpaceOnUse">
<stop stop-color="#61DCDF"/>
<stop offset="1" stop-color="#886CFF"/>
</linearGradient>
<linearGradient id="paint14_linear_1_462" x1="37.4947" y1="60.3965" x2="37.4286" y2="62.9985" gradientUnits="userSpaceOnUse">
<stop stop-color="#61DCDF"/>
<stop offset="1" stop-color="#886CFF"/>
</linearGradient>
</defs>
</svg>
