<svg width="100" height="100" viewBox="0 0 100 100" fill="none" xmlns="http://www.w3.org/2000/svg">
<g clip-path="url(#clip0_1_409)">
<path opacity="0.1" d="M96.1919 51.0992H86.9301V30.6689C89.469 30.6689 91.5248 28.611 91.5248 26.0742C91.5248 23.5353 89.4669 21.4795 86.9301 21.4795C85.2298 21.4795 83.7486 22.4052 82.9547 23.7779L78.3281 21.1071L77.7706 20.7857C78.1153 20.4069 78.3281 19.9047 78.3281 19.3513V9.17874C78.3281 8.004 77.3747 7.05059 76.2 7.05059H64.2632C63.0884 7.05059 62.135 8.004 62.135 9.17874V11.7581L53.7054 6.8931C54.097 6.21635 54.3247 5.43319 54.3247 4.59682C54.3225 2.05793 52.2646 0 49.7278 0C47.189 0 45.1332 2.05793 45.1332 4.59469C45.1332 5.43319 45.3609 6.21422 45.7525 6.89097L16.5009 23.7779C15.7071 22.4052 14.2259 21.4795 12.5255 21.4795C9.98666 21.4795 7.93086 23.5374 7.93086 26.0742C7.93086 28.6131 9.98879 30.6689 12.5255 30.6689V37.9472H4.68968C3.51494 37.9472 2.56152 38.9006 2.56152 40.0753V50.2479C2.56152 51.4227 3.51494 52.3761 4.68968 52.3761H12.5277V64.4364C9.98879 64.4364 7.93299 66.4943 7.93299 69.031C7.93299 71.5699 9.99092 73.6257 12.5277 73.6257C14.2281 73.6257 15.7093 72.7 16.5031 71.3273L45.7525 88.2143C45.3609 88.891 45.1332 89.6742 45.1332 90.5105C45.1332 93.0494 47.1911 95.1052 49.7278 95.1052C52.2667 95.1052 54.3225 93.0473 54.3225 90.5105C54.3225 89.6742 54.0948 88.891 53.7032 88.2143L68.4705 79.6889L73.9995 76.4966H96.1919C97.3666 76.4966 98.32 75.5432 98.32 74.3685V53.2295C98.32 52.0526 97.3666 51.0992 96.1919 51.0992Z" fill="url(#paint0_linear_1_409)"/>
<path d="M86.9309 29.9053V72.8643L68.4734 83.52L49.7286 94.3417L12.5264 72.8622V29.9053L49.7286 8.42798L62.1337 15.5892L78.3268 24.9382L86.9309 29.9053Z" fill="white"/>
<path d="M49.7393 74.2605L23.0947 66.7587L23.5182 36.2516L49.7266 20.0989L75.8221 36.3176L67.7819 61.8065L49.7393 74.2605Z" fill="#6583FE" fill-opacity="0.14"/>
<path d="M53.9595 10.1859C54.9301 7.84145 53.8164 5.15403 51.4719 4.18341C49.1274 3.21279 46.44 4.32651 45.4694 6.67098C44.4988 9.01545 45.6125 11.7029 47.957 12.6735C50.3014 13.6441 52.9888 12.5304 53.9595 10.1859Z" fill="white"/>
<path d="M49.7089 98.9191C52.2465 98.9191 54.3036 96.862 54.3036 94.3244C54.3036 91.7868 52.2465 89.7297 49.7089 89.7297C47.1714 89.7297 45.1143 91.7868 45.1143 94.3244C45.1143 96.862 47.1714 98.9191 49.7089 98.9191Z" fill="white"/>
<path d="M91.4119 30.9875C91.9955 28.5179 90.4667 26.0428 87.9972 25.4592C85.5276 24.8755 83.0525 26.4044 82.4689 28.8739C81.8852 31.3435 83.4141 33.8186 85.8836 34.4022C88.3532 34.9859 90.8283 33.457 91.4119 30.9875Z" fill="white"/>
<path d="M12.5214 34.5119C15.059 34.5119 17.1161 32.4548 17.1161 29.9172C17.1161 27.3796 15.059 25.3225 12.5214 25.3225C9.98387 25.3225 7.92676 27.3796 7.92676 29.9172C7.92676 32.4548 9.98387 34.5119 12.5214 34.5119Z" fill="white"/>
<path d="M15.7633 76.1023C17.5577 74.3081 17.5577 71.399 15.7633 69.6047C13.969 67.8104 11.0598 67.8104 9.26551 69.6047C7.47119 71.399 7.47119 74.3081 9.26551 76.1023C11.0598 77.8966 13.969 77.8966 15.7633 76.1023Z" fill="white"/>
<path d="M96.1923 80.3248H59.1623C57.9876 80.3248 57.0342 79.3713 57.0342 78.1966V57.0576C57.0342 55.8829 57.9876 54.9294 59.1623 54.9294H96.1923C97.367 54.9294 98.3204 55.8829 98.3204 57.0576V78.1966C98.3204 79.3735 97.367 80.3248 96.1923 80.3248Z" fill="white"/>
<path d="M73.9273 62.8726H63.9803C63.3908 62.8726 62.9141 62.3959 62.9141 61.8064C62.9141 61.2169 63.3908 60.7402 63.9803 60.7402H73.9273C74.5168 60.7402 74.9935 61.2169 74.9935 61.8064C74.9914 62.3959 74.5147 62.8726 73.9273 62.8726Z" fill="url(#paint1_linear_1_409)"/>
<path d="M86.6964 70.504H63.9783C63.3888 70.504 62.9121 70.0273 62.9121 69.4378C62.9121 68.8483 63.3888 68.3716 63.9783 68.3716H86.6943C87.2838 68.3716 87.7605 68.8483 87.7605 69.4378C87.7605 70.0273 87.2838 70.504 86.6964 70.504Z" fill="url(#paint2_linear_1_409)"/>
<path d="M86.6964 74.8211H63.9783C63.3888 74.8211 62.9121 74.3444 62.9121 73.7549C62.9121 73.1654 63.3888 72.6887 63.9783 72.6887H86.6943C87.2838 72.6887 87.7605 73.1654 87.7605 73.7549C87.7605 74.3444 87.2838 74.8211 86.6964 74.8211Z" fill="url(#paint3_linear_1_409)"/>
<path d="M83.0698 64.5264C82.7974 64.5264 82.525 64.4221 82.3165 64.2157C81.8185 63.7177 81.0076 63.7177 80.5097 64.2157C80.0947 64.6307 79.42 64.6307 79.005 64.2157C78.7965 64.0071 78.6943 63.7347 78.6943 63.4623C78.6943 63.1899 78.7986 62.9175 79.005 62.7089C79.2455 62.4684 79.3796 62.1471 79.3796 61.8065C79.3796 61.466 79.2477 61.1447 79.005 60.9042C78.7965 60.6956 78.6943 60.4232 78.6943 60.1508C78.6943 59.8784 78.7986 59.606 79.005 59.3974C79.42 58.9824 80.0947 58.9824 80.5097 59.3974C81.0076 59.8954 81.8185 59.8954 82.3165 59.3974C82.7314 58.9824 83.4061 58.9824 83.8211 59.3974C84.0296 59.606 84.1318 59.8784 84.1318 60.1508C84.1318 60.4232 84.0275 60.6956 83.8211 60.9042C83.5806 61.1447 83.4465 61.466 83.4465 61.8065C83.4465 62.1471 83.5784 62.4684 83.8211 62.7089C84.0296 62.9175 84.1318 63.1899 84.1318 63.4623C84.1318 63.7347 84.0275 64.0071 83.8211 64.2157C83.6146 64.4221 83.3422 64.5264 83.0698 64.5264Z" fill="#6583FE"/>
<path d="M91.7231 64.5264C91.4507 64.5264 91.1783 64.4221 90.9698 64.2157C90.4718 63.7177 89.661 63.7177 89.163 64.2157C88.748 64.6307 88.0734 64.6307 87.6584 64.2157C87.4498 64.0071 87.3477 63.7347 87.3477 63.4623C87.3477 63.1899 87.4519 62.9175 87.6584 62.7089C87.8988 62.4684 88.0329 62.1471 88.0329 61.8065C88.0329 61.466 87.901 61.1447 87.6584 60.9042C87.4498 60.6956 87.3477 60.4232 87.3477 60.1508C87.3477 59.8784 87.4519 59.606 87.6584 59.3974C88.0734 58.9824 88.748 58.9824 89.163 59.3974C89.661 59.8954 90.4718 59.8954 90.9698 59.3974C91.3848 58.9824 92.0594 58.9824 92.4744 59.3974C92.6829 59.606 92.7851 59.8784 92.7851 60.1508C92.7851 60.4232 92.6808 60.6956 92.4744 60.9042C92.2339 61.1447 92.0998 61.466 92.0998 61.8065C92.0998 62.1471 92.2318 62.4684 92.4744 62.7089C92.6829 62.9175 92.7851 63.1899 92.7851 63.4623C92.7851 63.7347 92.6808 64.0071 92.4744 64.2157C92.268 64.4242 91.9956 64.5264 91.7231 64.5264Z" fill="#6583FE"/>
<path d="M16.6244 56.2065H4.68968C3.51494 56.2065 2.56152 55.2531 2.56152 54.0783V43.9057C2.56152 42.731 3.51494 41.7776 4.68968 41.7776H16.6265C17.8013 41.7776 18.7547 42.731 18.7547 43.9057V54.0783C18.7525 55.2531 17.7991 56.2065 16.6244 56.2065Z" fill="white"/>
<path d="M9.21071 52.6194C9.03407 52.6194 8.85318 52.5747 8.68931 52.4811C8.17855 52.1917 7.99765 51.5426 8.28496 51.0318L11.1771 45.9093C11.4666 45.3985 12.1157 45.2176 12.6264 45.5049C13.1372 45.7944 13.3181 46.4435 13.0308 46.9542L10.1386 52.0767C9.9428 52.4236 9.58101 52.6194 9.21071 52.6194Z" fill="url(#paint4_linear_1_409)"/>
<path d="M76.1988 25.3105H64.2619C63.0872 25.3105 62.1338 24.3571 62.1338 23.1823V13.0097C62.1338 11.835 63.0872 10.8816 64.2619 10.8816H76.1988C77.3735 10.8816 78.3269 11.835 78.3269 13.0097V23.1823C78.3269 24.3571 77.3735 25.3105 76.1988 25.3105Z" fill="white"/>
<path d="M68.782 21.7202C68.6053 21.7202 68.4244 21.6755 68.2606 21.5819C67.7498 21.2924 67.5689 20.6433 67.8562 20.1326L70.7483 15.0101C71.0378 14.4993 71.6868 14.3185 72.1976 14.6058C72.7083 14.8952 72.8892 15.5443 72.6019 16.055L69.7098 21.1775C69.514 21.5265 69.1544 21.7202 68.782 21.7202Z" fill="url(#paint5_linear_1_409)"/>
<path d="M49.7287 53.8C51.0486 53.8 52.1186 52.73 52.1186 51.4101C52.1186 50.0902 51.0486 49.0203 49.7287 49.0203C48.4088 49.0203 47.3389 50.0902 47.3389 51.4101C47.3389 52.73 48.4088 53.8 49.7287 53.8Z" fill="white"/>
<path d="M48.6641 37.3177C48.6641 37.9051 49.1408 38.3818 49.7282 38.3818C50.3156 38.3818 50.7923 37.9051 50.7923 37.3177V34.7596C50.7923 34.1723 50.3156 33.6956 49.7282 33.6956C49.1408 33.6956 48.6641 34.1723 48.6641 34.7596V37.3177Z" fill="url(#paint6_linear_1_409)"/>
<path d="M49.7282 23.0353C50.3156 23.0353 50.7923 22.5586 50.7923 21.9712V19.4132C50.7923 18.8258 50.3156 18.3491 49.7282 18.3491C49.1408 18.3491 48.6641 18.8258 48.6641 19.4132V21.9712C48.6641 22.5586 49.1408 23.0353 49.7282 23.0353Z" fill="url(#paint7_linear_1_409)"/>
<path d="M48.6641 29.6433C48.6641 30.2306 49.1408 30.7073 49.7282 30.7073C50.3156 30.7073 50.7923 30.2306 50.7923 29.6433V27.0853C50.7923 26.4979 50.3156 26.0212 49.7282 26.0212C49.1408 26.0212 48.6641 26.4979 48.6641 27.0853V29.6433Z" fill="url(#paint8_linear_1_409)"/>
<path d="M49.7282 79.7322C49.1408 79.7322 48.6641 80.2089 48.6641 80.7963V83.3543C48.6641 83.9417 49.1408 84.4184 49.7282 84.4184C50.3156 84.4184 50.7923 83.9417 50.7923 83.3543V80.7963C50.7923 80.2089 50.3156 79.7322 49.7282 79.7322Z" fill="url(#paint9_linear_1_409)"/>
<path d="M50.7923 65.4491C50.7923 64.8617 50.3156 64.385 49.7282 64.385C49.1408 64.385 48.6641 64.8617 48.6641 65.4491V68.0071C48.6641 68.5945 49.1408 69.0712 49.7282 69.0712C50.3156 69.0712 50.7923 68.5945 50.7923 68.0071V65.4491Z" fill="url(#paint10_linear_1_409)"/>
<path d="M50.7923 57.7779C50.7923 57.1906 50.3156 56.7139 49.7282 56.7139C49.1408 56.7139 48.6641 57.1906 48.6641 57.7779V60.336C48.6641 60.9234 49.1408 61.4001 49.7282 61.4001C50.3156 61.4001 50.7923 60.9234 50.7923 60.336V57.7779Z" fill="url(#paint11_linear_1_409)"/>
<path d="M50.7923 73.1232C50.7923 72.5358 50.3156 72.0591 49.7282 72.0591C49.1408 72.0591 48.6641 72.5358 48.6641 73.1232V75.6812C48.6641 76.2686 49.1408 76.7453 49.7282 76.7453C50.3156 76.7453 50.7923 76.2686 50.7923 75.6812V73.1232Z" fill="url(#paint12_linear_1_409)"/>
<path d="M48.6641 44.9898C48.6641 45.5772 49.1408 46.0539 49.7282 46.0539C50.3156 46.0539 50.7923 45.5772 50.7923 44.9898V42.4318C50.7923 41.8444 50.3156 41.3677 49.7282 41.3677C49.1408 41.3677 48.6641 41.8444 48.6641 42.4318V44.9898Z" fill="url(#paint13_linear_1_409)"/>
<path d="M21.2364 67.8342C21.4344 68.1747 21.7919 68.3662 22.1579 68.3662C22.3388 68.3662 22.5219 68.3194 22.6879 68.2236L24.8756 66.9595C25.3843 66.6658 25.5588 66.0146 25.2651 65.5059C24.9714 64.9973 24.3202 64.8228 23.8115 65.1165L21.6238 66.3806C21.1173 66.6743 20.9427 67.3255 21.2364 67.8342Z" fill="url(#paint14_linear_1_409)"/>
<path d="M68.1033 41.8393C68.2842 41.8393 68.4673 41.7925 68.6333 41.6967L70.821 40.4326C71.3297 40.1389 71.5042 39.4877 71.2105 38.9791C70.9168 38.4705 70.2656 38.2959 69.7569 38.5896L67.5692 39.8538C67.0605 40.1474 66.886 40.7987 67.1797 41.3073C67.3776 41.6478 67.7352 41.8393 68.1033 41.8393Z" fill="url(#paint15_linear_1_409)"/>
<path d="M61.5399 45.6284C61.7208 45.6284 61.9038 45.5816 62.0698 45.4859L64.2575 44.2239C64.7661 43.9302 64.9406 43.279 64.6469 42.7703C64.3533 42.2617 63.7021 42.0872 63.1934 42.3809L61.0057 43.6429C60.4971 43.9366 60.3226 44.5878 60.6162 45.0964C60.8142 45.439 61.1717 45.6284 61.5399 45.6284Z" fill="url(#paint16_linear_1_409)"/>
<path d="M54.9764 49.4178C55.1574 49.4178 55.3404 49.3709 55.5064 49.2752L57.6943 48.0132C58.2029 47.7195 58.3775 47.0683 58.0838 46.5596C57.7901 46.051 57.1388 45.8765 56.6301 46.1702L54.4423 47.4322C53.9336 47.7259 53.7591 48.3771 54.0528 48.8857C54.2507 49.2262 54.6083 49.4178 54.9764 49.4178Z" fill="url(#paint17_linear_1_409)"/>
<path d="M74.6658 38.05C74.8467 38.05 75.0297 38.0032 75.1957 37.9074L77.3835 36.6433C77.8921 36.3496 78.0666 35.6984 77.7729 35.1898C77.4792 34.6811 76.828 34.5066 76.3194 34.8003L74.1317 36.0644C73.623 36.3581 73.4485 37.0093 73.7422 37.518C73.9401 37.8606 74.2998 38.05 74.6658 38.05Z" fill="url(#paint18_linear_1_409)"/>
<path d="M40.9268 56.4644C41.1247 56.8049 41.4822 56.9964 41.8504 56.9964C42.0313 56.9964 42.2143 56.9496 42.3803 56.8538L44.5681 55.5898C45.0767 55.2961 45.2512 54.6449 44.9575 54.1363C44.6638 53.6277 44.0126 53.4532 43.504 53.7469L41.3162 55.0109C40.8076 55.3046 40.6331 55.9558 40.9268 56.4644Z" fill="url(#paint19_linear_1_409)"/>
<path d="M27.7998 64.0419C27.9978 64.3824 28.3553 64.574 28.7235 64.574C28.9043 64.574 29.0874 64.5272 29.2534 64.4314L31.4411 63.1673C31.9497 62.8736 32.1242 62.2223 31.8306 61.7137C31.5369 61.2051 30.8857 61.0306 30.377 61.3243L28.1893 62.5884C27.6807 62.8842 27.5062 63.5333 27.7998 64.0419Z" fill="url(#paint20_linear_1_409)"/>
<path d="M34.3633 60.2545C34.5612 60.595 34.9188 60.7866 35.2869 60.7866C35.4678 60.7866 35.6508 60.7397 35.8168 60.644L38.0046 59.3799C38.5132 59.0862 38.6877 58.435 38.394 57.9263C38.1003 57.4177 37.4491 57.2432 36.9405 57.5369L34.7528 58.801C34.2441 59.0947 34.0696 59.7459 34.3633 60.2545Z" fill="url(#paint21_linear_1_409)"/>
<path d="M41.5203 47.8728L43.7166 49.1412C43.8847 49.2391 44.0677 49.2838 44.2465 49.2838C44.6147 49.2838 44.9722 49.0922 45.1701 48.7517C45.4638 48.2431 45.2893 47.5919 44.7807 47.2982L42.5844 46.0298C42.0737 45.7361 41.4246 45.9106 41.1309 46.4193C40.8372 46.9279 41.0117 47.5791 41.5203 47.8728Z" fill="url(#paint22_linear_1_409)"/>
<path d="M21.7537 36.4624L23.95 37.7308C24.1182 37.8287 24.3012 37.8734 24.4799 37.8734C24.8481 37.8734 25.2057 37.6818 25.4036 37.3413C25.6973 36.8327 25.5228 36.1815 25.0141 35.8878L22.8178 34.6194C22.3092 34.3257 21.658 34.5002 21.3643 35.0089C21.0706 35.5175 21.2451 36.1687 21.7537 36.4624Z" fill="url(#paint23_linear_1_409)"/>
<path d="M34.9315 44.0703L37.1277 45.3387C37.2959 45.4366 37.4789 45.4813 37.6577 45.4813C38.0258 45.4813 38.3834 45.2897 38.5813 44.9492C38.875 44.4406 38.7005 43.7894 38.1918 43.4957L35.9956 42.2273C35.4869 41.9336 34.8357 42.1081 34.542 42.6168C34.2483 43.1254 34.4228 43.7766 34.9315 44.0703Z" fill="url(#paint24_linear_1_409)"/>
<path d="M28.3426 40.2649L30.5389 41.5333C30.707 41.6312 30.89 41.6759 31.0688 41.6759C31.437 41.6759 31.7945 41.4843 31.9924 41.1438C32.2861 40.6352 32.1116 39.984 31.603 39.6903L29.4067 38.4219C28.8959 38.1282 28.2468 38.3027 27.9532 38.8114C27.6595 39.32 27.834 39.9712 28.3426 40.2649Z" fill="url(#paint25_linear_1_409)"/>
<path d="M96.1925 53.8662H87.9948V35.4619C90.6082 34.9618 92.5895 32.6613 92.5895 29.9032C92.5895 26.7833 90.0506 24.2444 86.9308 24.2444C85.224 24.2444 83.6917 25.0063 82.6532 26.2044L79.2141 24.2189C79.3269 23.8932 79.3907 23.5442 79.3907 23.1803V13.0077C79.3907 11.2477 77.9584 9.81548 76.1985 9.81548H64.2616C62.5016 9.81548 61.0694 11.2477 61.0694 13.0077V13.7441L55.0723 10.2815C55.2744 9.69843 55.3872 9.07488 55.3872 8.42366C55.3872 5.30379 52.8483 2.76489 49.7285 2.76489C46.6086 2.76489 44.0697 5.30379 44.0697 8.42366C44.0697 9.07488 44.1804 9.69843 44.3847 10.2815L16.8037 26.2066C15.7652 25.0063 14.2329 24.2465 12.5262 24.2465C9.40628 24.2465 6.86738 26.7854 6.86738 29.9053C6.86738 32.6613 8.8487 34.9639 11.4621 35.464V40.7163H4.69028C2.9303 40.7163 1.49805 42.1486 1.49805 43.9086V54.0812C1.49805 55.8411 2.9303 57.2734 4.69028 57.2734H16.6271C18.3871 57.2734 19.8193 55.8411 19.8193 54.0812V43.9086C19.8193 42.1486 18.3871 40.7163 16.6271 40.7163H13.5902V35.464C14.865 35.2214 15.9865 34.5489 16.8037 33.604L17.3613 33.9254C17.5294 34.0233 17.7125 34.068 17.8934 34.068C18.2615 34.068 18.6191 33.8764 18.8149 33.5359C19.1085 33.0273 18.934 32.3761 18.4254 32.0824L17.87 31.761C18.0721 31.1779 18.1849 30.5544 18.1849 29.9032C18.1849 29.2519 18.0721 28.6284 17.87 28.0453L45.4487 12.1224C46.2659 13.0673 47.3896 13.7377 48.6622 13.9824V14.2974C48.6622 14.8848 49.139 15.3615 49.7263 15.3615C50.3137 15.3615 50.7904 14.8848 50.7904 14.2974V13.9824C52.0652 13.7398 53.1867 13.0673 54.0039 12.1224L61.0673 16.2V23.1782C61.0673 24.9382 62.4995 26.3704 64.2595 26.3704H76.1963C76.8071 26.3704 77.3775 26.1959 77.8627 25.8958L81.5848 28.0453C81.3826 28.6284 81.2699 29.2519 81.2699 29.9032C81.2699 30.5544 81.3805 31.1779 81.5848 31.761L80.6974 32.2739C80.1888 32.5676 80.0142 33.2188 80.3079 33.7275C80.5058 34.068 80.8634 34.2595 81.2294 34.2595C81.4103 34.2595 81.5933 34.2127 81.7593 34.1169L82.651 33.6019C83.4682 34.5468 84.5919 35.2172 85.8645 35.4619V54.9303C85.8645 55.5177 86.3413 55.9944 86.9286 55.9944H96.1925C96.7799 55.9944 97.2566 56.4711 97.2566 57.0584V78.1974C97.2566 78.7848 96.7799 79.2615 96.1925 79.2615H59.1626C58.5752 79.2615 58.0985 78.7848 58.0985 78.1974V57.0584C58.0985 56.4711 58.5752 55.9944 59.1626 55.9944H81.0698C81.6572 55.9944 82.1339 55.5177 82.1339 54.9303C82.1339 54.3429 81.6572 53.8662 81.0698 53.8662H59.1626C58.4475 53.8662 57.7899 54.1046 57.2579 54.5025L55.7618 53.6385C55.251 53.3448 54.6019 53.5193 54.3082 54.028C54.0146 54.5366 54.1891 55.1878 54.6977 55.4815L56.0704 56.2753C56.0065 56.5264 55.9682 56.7882 55.9682 57.0584V78.1974C55.9682 79.9574 57.4005 81.3897 59.1604 81.3897H70.0289L54.0039 90.6408C53.1867 89.6959 52.063 89.0255 50.7904 88.7829V88.4679C50.7904 87.8806 50.3137 87.4039 49.7263 87.4039C49.139 87.4039 48.6622 87.8806 48.6622 88.4679V88.7829C47.3875 89.0255 46.2659 89.698 45.4487 90.6429L17.87 74.72C18.0721 74.1369 18.1849 73.5134 18.1849 72.8622C18.1849 72.2109 18.0721 71.5874 17.87 71.0043L18.3126 70.7489C18.8212 70.4552 18.9957 69.804 18.7021 69.2954C18.4084 68.7867 17.7572 68.6122 17.2485 68.9059L16.8016 69.1634C15.9844 68.2185 14.8607 67.5481 13.5881 67.3055V62.0681C13.5881 61.4808 13.1114 61.0041 12.524 61.0041C11.9367 61.0041 11.4599 61.4808 11.4599 62.0681V67.3055C8.84657 67.8057 6.86526 70.1062 6.86526 72.8622C6.86526 75.982 9.40415 78.5209 12.524 78.5209C14.2308 78.5209 15.7631 77.759 16.8016 76.5609L44.3804 92.4838C44.1782 93.0669 44.0654 93.6904 44.0654 94.3417C44.0654 97.4615 46.6043 100 49.7242 100C52.8441 100 55.383 97.4615 55.383 94.3417C55.383 93.6904 55.2723 93.0669 55.068 92.4838L74.1554 81.462C74.1916 81.4408 74.2235 81.4131 74.2555 81.3897H96.1925C97.9525 81.3897 99.3847 79.9574 99.3847 78.1974V57.0584C99.3847 55.2985 97.9525 53.8662 96.1925 53.8662ZM17.6891 43.9064V54.079C17.6891 54.6664 17.2124 55.1431 16.625 55.1431H4.69028C4.10291 55.1431 3.6262 54.6664 3.6262 54.079V43.9064C3.6262 43.3191 4.10291 42.8424 4.69028 42.8424H16.6271C17.2124 42.8424 17.6891 43.3212 17.6891 43.9064ZM12.5262 33.4359C10.5789 33.4359 8.99554 31.8526 8.99554 29.9053C8.99554 27.958 10.5789 26.3747 12.5262 26.3747C14.4734 26.3747 16.0568 27.958 16.0568 29.9053C16.0568 31.8526 14.4734 33.4359 12.5262 33.4359ZM49.7285 11.9585C47.7812 11.9585 46.1978 10.3752 46.1978 8.42792C46.1978 6.48066 47.7812 4.89518 49.7285 4.89518C51.6757 4.89518 53.2591 6.47853 53.2591 8.42579C53.2591 10.3731 51.6757 11.9585 49.7285 11.9585ZM76.1985 24.2465H64.2616C63.6743 24.2465 63.1976 23.7698 63.1976 23.1824V13.0098C63.1976 12.4225 63.6743 11.9458 64.2616 11.9458H76.1985C76.7858 11.9458 77.2625 12.4225 77.2625 13.0098V23.1824C77.2625 23.7677 76.7858 24.2465 76.1985 24.2465ZM83.4001 29.9053C83.4001 27.958 84.9835 26.3747 86.9308 26.3747C88.878 26.3747 90.4614 27.958 90.4614 29.9053C90.4614 31.8526 88.878 33.4359 86.9308 33.4359C84.9835 33.4359 83.4001 31.8526 83.4001 29.9053ZM12.5262 76.3928C10.5789 76.3928 8.99554 74.8094 8.99554 72.8622C8.99554 70.9149 10.5789 69.3315 12.5262 69.3315C14.4734 69.3315 16.0568 70.9149 16.0568 72.8622C16.0568 74.8094 14.4734 76.3928 12.5262 76.3928ZM49.7285 97.8723C47.7812 97.8723 46.1978 96.2889 46.1978 94.3417C46.1978 92.3944 47.7812 90.811 49.7285 90.811C51.6757 90.811 53.2591 92.3944 53.2591 94.3417C53.2591 96.2889 51.6757 97.8723 49.7285 97.8723Z" fill="url(#paint26_linear_1_409)"/>
<path d="M46.2744 51.3849C46.2744 53.2896 47.8237 54.8389 49.7284 54.8389C51.6331 54.8389 53.1824 53.2896 53.1824 51.3849C53.1824 49.4802 51.6331 47.9309 49.7284 47.9309C47.8237 47.9309 46.2744 49.4781 46.2744 51.3849ZM49.7284 50.0569C50.4605 50.0569 51.0542 50.6528 51.0542 51.3828C51.0542 52.1127 50.4584 52.7086 49.7284 52.7086C48.9985 52.7086 48.4026 52.1127 48.4026 51.3828C48.4026 50.6528 48.9963 50.0569 49.7284 50.0569Z" fill="url(#paint27_linear_1_409)"/>
<path d="M3.40886 66.2821C3.12582 66.2821 2.85554 66.1693 2.6555 65.9713L0.310266 63.6261C-0.104724 63.2111 -0.104724 62.5365 0.310266 62.1215L2.6555 59.7763C2.85554 59.5762 3.12582 59.4656 3.40886 59.4656C3.69191 59.4656 3.96218 59.5784 4.1601 59.7763L6.50533 62.1215C6.70538 62.3216 6.81817 62.5918 6.81817 62.8749C6.81817 63.1579 6.70538 63.4282 6.50533 63.6283L4.1601 65.9735C3.96006 66.1693 3.68978 66.2821 3.40886 66.2821ZM2.56824 62.8728L3.40886 63.7134L4.24949 62.8728L3.40886 62.0321L2.56824 62.8728Z" fill="#6583FE"/>
<path d="M80.672 90.8335C80.389 90.8335 80.1187 90.7207 79.9187 90.5228L77.5734 88.1776C77.3734 87.9775 77.2627 87.7072 77.2627 87.4242C77.2627 87.1412 77.3755 86.8709 77.5734 86.6708L79.9187 84.3256C80.1187 84.1256 80.389 84.0149 80.672 84.0149C80.9551 84.0149 81.2254 84.1277 81.4254 84.3256L83.7707 86.6708C84.1857 87.0858 84.1857 87.7605 83.7707 88.1754L81.4254 90.5207C81.2232 90.7207 80.953 90.8335 80.672 90.8335ZM79.8314 87.4242L80.672 88.2648L81.5127 87.4242L80.672 86.5836L79.8314 87.4242Z" fill="#6583FE"/>
<path d="M88.176 17.6403C87.9951 17.6403 87.8121 17.5935 87.6461 17.4977L84.7752 15.8399C84.2666 15.5462 84.0921 14.895 84.3858 14.3863L86.0436 11.5155C86.3373 11.0068 86.9885 10.8323 87.4971 11.126L90.368 12.7838C90.8766 13.0775 91.0511 13.7287 90.7575 14.2374L89.0996 17.1083C88.8996 17.4488 88.5421 17.6403 88.176 17.6403ZM86.7587 14.5289L87.7866 15.1227L88.3803 14.0948L87.3524 13.501L86.7587 14.5289Z" fill="#6583FE"/>
<path d="M81.9484 8.09743C81.361 8.09743 80.8843 7.62072 80.8843 7.03335C80.8843 6.3268 80.3097 5.7522 79.6031 5.7522C79.0158 5.7522 78.5391 5.27549 78.5391 4.68812C78.5391 4.10075 79.0158 3.62404 79.6031 3.62404C80.3097 3.62404 80.8843 3.04944 80.8843 2.34289C80.8843 1.75552 81.361 1.27881 81.9484 1.27881C82.5357 1.27881 83.0125 1.75552 83.0125 2.34289C83.0125 3.04944 83.5871 3.62404 84.2936 3.62404C84.881 3.62404 85.3577 4.10075 85.3577 4.68812C85.3577 5.27549 84.881 5.7522 84.2936 5.7522C83.5871 5.7522 83.0125 6.3268 83.0125 7.03335C83.0125 7.62072 82.5357 8.09743 81.9484 8.09743Z" fill="#6583FE"/>
</g>
<defs>
<linearGradient id="paint0_linear_1_409" x1="94.3182" y1="5.55981e-07" x2="83.9308" y2="103.288" gradientUnits="userSpaceOnUse">
<stop stop-color="#61DCDF"/>
<stop offset="1" stop-color="#886CFF"/>
</linearGradient>
<linearGradient id="paint1_linear_1_409" x1="74.4887" y1="60.7402" x2="74.4469" y2="63.0788" gradientUnits="userSpaceOnUse">
<stop stop-color="#61DCDF"/>
<stop offset="1" stop-color="#886CFF"/>
</linearGradient>
<linearGradient id="paint2_linear_1_409" x1="86.722" y1="68.3716" x2="86.7017" y2="70.7107" gradientUnits="userSpaceOnUse">
<stop stop-color="#61DCDF"/>
<stop offset="1" stop-color="#886CFF"/>
</linearGradient>
<linearGradient id="paint3_linear_1_409" x1="86.722" y1="72.6887" x2="86.7017" y2="75.0279" gradientUnits="userSpaceOnUse">
<stop stop-color="#61DCDF"/>
<stop offset="1" stop-color="#886CFF"/>
</linearGradient>
<linearGradient id="paint4_linear_1_409" x1="12.9576" y1="45.3684" x2="11.8182" y2="53.1563" gradientUnits="userSpaceOnUse">
<stop stop-color="#61DCDF"/>
<stop offset="1" stop-color="#886CFF"/>
</linearGradient>
<linearGradient id="paint5_linear_1_409" x1="72.5287" y1="14.4692" x2="71.3894" y2="22.257" gradientUnits="userSpaceOnUse">
<stop stop-color="#61DCDF"/>
<stop offset="1" stop-color="#886CFF"/>
</linearGradient>
<linearGradient id="paint6_linear_1_409" x1="50.7034" y1="33.6956" x2="49.6115" y2="38.593" gradientUnits="userSpaceOnUse">
<stop stop-color="#61DCDF"/>
<stop offset="1" stop-color="#886CFF"/>
</linearGradient>
<linearGradient id="paint7_linear_1_409" x1="50.7034" y1="18.3491" x2="49.6115" y2="23.2466" gradientUnits="userSpaceOnUse">
<stop stop-color="#61DCDF"/>
<stop offset="1" stop-color="#886CFF"/>
</linearGradient>
<linearGradient id="paint8_linear_1_409" x1="50.7034" y1="26.0212" x2="49.6115" y2="30.9186" gradientUnits="userSpaceOnUse">
<stop stop-color="#61DCDF"/>
<stop offset="1" stop-color="#886CFF"/>
</linearGradient>
<linearGradient id="paint9_linear_1_409" x1="50.7034" y1="79.7322" x2="49.6115" y2="84.6296" gradientUnits="userSpaceOnUse">
<stop stop-color="#61DCDF"/>
<stop offset="1" stop-color="#886CFF"/>
</linearGradient>
<linearGradient id="paint10_linear_1_409" x1="50.7034" y1="64.385" x2="49.6115" y2="69.2824" gradientUnits="userSpaceOnUse">
<stop stop-color="#61DCDF"/>
<stop offset="1" stop-color="#886CFF"/>
</linearGradient>
<linearGradient id="paint11_linear_1_409" x1="50.7034" y1="56.7139" x2="49.6115" y2="61.6113" gradientUnits="userSpaceOnUse">
<stop stop-color="#61DCDF"/>
<stop offset="1" stop-color="#886CFF"/>
</linearGradient>
<linearGradient id="paint12_linear_1_409" x1="50.7034" y1="72.0591" x2="49.6115" y2="76.9565" gradientUnits="userSpaceOnUse">
<stop stop-color="#61DCDF"/>
<stop offset="1" stop-color="#886CFF"/>
</linearGradient>
<linearGradient id="paint13_linear_1_409" x1="50.7034" y1="41.3677" x2="49.6115" y2="46.2651" gradientUnits="userSpaceOnUse">
<stop stop-color="#61DCDF"/>
<stop offset="1" stop-color="#886CFF"/>
</linearGradient>
<linearGradient id="paint14_linear_1_409" x1="25.2274" y1="64.9739" x2="24.933" y2="68.6719" gradientUnits="userSpaceOnUse">
<stop stop-color="#61DCDF"/>
<stop offset="1" stop-color="#886CFF"/>
</linearGradient>
<linearGradient id="paint15_linear_1_409" x1="71.1727" y1="38.447" x2="70.8784" y2="42.145" gradientUnits="userSpaceOnUse">
<stop stop-color="#61DCDF"/>
<stop offset="1" stop-color="#886CFF"/>
</linearGradient>
<linearGradient id="paint16_linear_1_409" x1="64.6092" y1="42.2383" x2="64.3152" y2="45.934" gradientUnits="userSpaceOnUse">
<stop stop-color="#61DCDF"/>
<stop offset="1" stop-color="#886CFF"/>
</linearGradient>
<linearGradient id="paint17_linear_1_409" x1="58.046" y1="46.0276" x2="57.7521" y2="49.7233" gradientUnits="userSpaceOnUse">
<stop stop-color="#61DCDF"/>
<stop offset="1" stop-color="#886CFF"/>
</linearGradient>
<linearGradient id="paint18_linear_1_409" x1="77.7352" y1="34.6577" x2="77.4408" y2="38.3557" gradientUnits="userSpaceOnUse">
<stop stop-color="#61DCDF"/>
<stop offset="1" stop-color="#886CFF"/>
</linearGradient>
<linearGradient id="paint19_linear_1_409" x1="44.9197" y1="53.6042" x2="44.6254" y2="57.3021" gradientUnits="userSpaceOnUse">
<stop stop-color="#61DCDF"/>
<stop offset="1" stop-color="#886CFF"/>
</linearGradient>
<linearGradient id="paint20_linear_1_409" x1="31.7928" y1="61.1816" x2="31.4985" y2="64.8797" gradientUnits="userSpaceOnUse">
<stop stop-color="#61DCDF"/>
<stop offset="1" stop-color="#886CFF"/>
</linearGradient>
<linearGradient id="paint21_linear_1_409" x1="38.3563" y1="57.3943" x2="38.062" y2="61.0923" gradientUnits="userSpaceOnUse">
<stop stop-color="#61DCDF"/>
<stop offset="1" stop-color="#886CFF"/>
</linearGradient>
<linearGradient id="paint22_linear_1_409" x1="45.132" y1="45.8872" x2="44.8375" y2="49.5899" gradientUnits="userSpaceOnUse">
<stop stop-color="#61DCDF"/>
<stop offset="1" stop-color="#886CFF"/>
</linearGradient>
<linearGradient id="paint23_linear_1_409" x1="25.3655" y1="34.4768" x2="25.071" y2="38.1795" gradientUnits="userSpaceOnUse">
<stop stop-color="#61DCDF"/>
<stop offset="1" stop-color="#886CFF"/>
</linearGradient>
<linearGradient id="paint24_linear_1_409" x1="38.5432" y1="42.0847" x2="38.2487" y2="45.7874" gradientUnits="userSpaceOnUse">
<stop stop-color="#61DCDF"/>
<stop offset="1" stop-color="#886CFF"/>
</linearGradient>
<linearGradient id="paint25_linear_1_409" x1="31.9543" y1="38.2793" x2="31.6598" y2="41.982" gradientUnits="userSpaceOnUse">
<stop stop-color="#61DCDF"/>
<stop offset="1" stop-color="#886CFF"/>
</linearGradient>
<linearGradient id="paint26_linear_1_409" x1="95.2939" y1="2.76489" x2="84.6721" y2="108.366" gradientUnits="userSpaceOnUse">
<stop stop-color="#61DCDF"/>
<stop offset="1" stop-color="#886CFF"/>
</linearGradient>
<linearGradient id="paint27_linear_1_409" x1="52.8937" y1="47.9309" x2="52.1341" y2="55.4323" gradientUnits="userSpaceOnUse">
<stop stop-color="#61DCDF"/>
<stop offset="1" stop-color="#886CFF"/>
</linearGradient>
<clipPath id="clip0_1_409">
<rect width="99.385" height="100" fill="white"/>
</clipPath>
</defs>
</svg>
