<svg width="113" height="100" viewBox="0 0 113 100" fill="none" xmlns="http://www.w3.org/2000/svg">
<g clip-path="url(#clip0_1_331)">
<g opacity="0.1">
<path opacity="0.1" d="M95.9197 0H16.2081C14.7892 0 13.6396 1.14951 13.6396 2.56844V12.8551C13.6396 14.274 14.7892 15.4235 16.2081 15.4235H95.9197C97.3386 15.4235 98.4881 14.274 98.4881 12.8551V2.56844C98.4881 1.14951 97.3386 0 95.9197 0Z" fill="url(#paint0_linear_1_331)"/>
<path opacity="0.1" d="M95.9197 24.8325H16.2081C14.7892 24.8325 13.6396 25.982 13.6396 27.401V37.685C13.6396 39.1039 14.7892 40.2535 16.2081 40.2535H95.9197C97.3386 40.2535 98.4881 39.1039 98.4881 37.685V27.401C98.4881 25.982 97.3386 24.8325 95.9197 24.8325Z" fill="url(#paint1_linear_1_331)"/>
<path opacity="0.1" d="M95.9197 49.665H16.2081C14.7892 49.665 13.6396 50.8146 13.6396 52.2335V62.5175C13.6396 63.9365 14.7892 65.086 16.2081 65.086H95.9197C97.3386 65.086 98.4881 63.9365 98.4881 62.5175V52.2335C98.4881 50.8146 97.3386 49.665 95.9197 49.665Z" fill="url(#paint2_linear_1_331)"/>
<path opacity="0.1" d="M75.2005 83.0652H36.9278C35.5089 83.0652 34.3594 84.2147 34.3594 85.6336V90.7577C34.3594 92.1766 35.5089 93.3261 36.9278 93.3261H75.2005C76.6194 93.3261 77.7689 92.1766 77.7689 90.7577V85.6336C77.7689 84.2147 76.6194 83.0652 75.2005 83.0652Z" fill="url(#paint3_linear_1_331)"/>
</g>
<path d="M59.874 68.0959V75.0315C59.874 76.4505 58.7244 77.6 57.3055 77.6H54.8243C53.4028 77.6 52.2559 76.4505 52.2559 75.0315V68.0959H59.874Z" fill="white"/>
<path d="M18.2197 17.2991H93.908V59.0793H18.2197V17.2991Z" fill="#6583FE" fill-opacity="0.1"/>
<path d="M95.9197 20.8119H16.2081C14.7892 20.8119 13.6396 19.6624 13.6396 18.2435V7.95687C13.6396 6.53794 14.7892 5.38843 16.2081 5.38843H95.9197C97.3386 5.38843 98.4881 6.53794 98.4881 7.95687V18.2435C98.4881 19.6598 97.3386 20.8119 95.9197 20.8119Z" fill="white"/>
<path d="M25.1762 14.5356C25.9697 14.5356 26.613 13.8923 26.613 13.0988C26.613 12.3052 25.9697 11.6619 25.1762 11.6619C24.3826 11.6619 23.7393 12.3052 23.7393 13.0988C23.7393 13.8923 24.3826 14.5356 25.1762 14.5356Z" fill="url(#paint4_linear_1_331)"/>
<path d="M29.5258 14.5356C30.3193 14.5356 30.9626 13.8923 30.9626 13.0988C30.9626 12.3052 30.3193 11.6619 29.5258 11.6619C28.7322 11.6619 28.0889 12.3052 28.0889 13.0988C28.0889 13.8923 28.7322 14.5356 29.5258 14.5356Z" fill="url(#paint5_linear_1_331)"/>
<path d="M33.8744 14.5356C34.668 14.5356 35.3113 13.8923 35.3113 13.0988C35.3113 12.3052 34.668 11.6619 33.8744 11.6619C33.0808 11.6619 32.4375 12.3052 32.4375 13.0988C32.4375 13.8923 33.0808 14.5356 33.8744 14.5356Z" fill="url(#paint6_linear_1_331)"/>
<path d="M62.9946 11.8132H43.2835C42.6112 11.8132 42.0108 12.3033 41.9467 12.973C41.8722 13.7402 42.4752 14.3868 43.227 14.3868H62.992C63.7028 14.3868 64.2775 13.8095 64.2775 13.1013C64.2801 12.3906 63.7028 11.8132 62.9946 11.8132Z" fill="url(#paint7_linear_1_331)"/>
<path d="M88.5512 11.8132H68.8401C68.1679 11.8132 67.5674 12.3033 67.5033 12.973C67.4289 13.7402 68.0319 14.3868 68.7837 14.3868H88.5486C89.2594 14.3868 89.8341 13.8095 89.8341 13.1013C89.8393 12.3906 89.2619 11.8132 88.5512 11.8132Z" fill="url(#paint8_linear_1_331)"/>
<path d="M95.9197 45.6418H16.2081C14.7892 45.6418 13.6396 44.4923 13.6396 43.0733V32.7867C13.6396 31.3678 14.7892 30.2183 16.2081 30.2183H95.9197C97.3386 30.2183 98.4881 31.3678 98.4881 32.7867V43.0708C98.4881 44.4923 97.3386 45.6418 95.9197 45.6418Z" fill="white"/>
<path d="M25.1762 39.3682C25.9697 39.3682 26.613 38.7249 26.613 37.9313C26.613 37.1377 25.9697 36.4944 25.1762 36.4944C24.3826 36.4944 23.7393 37.1377 23.7393 37.9313C23.7393 38.7249 24.3826 39.3682 25.1762 39.3682Z" fill="url(#paint9_linear_1_331)"/>
<path d="M29.5258 39.3682C30.3193 39.3682 30.9626 38.7249 30.9626 37.9313C30.9626 37.1377 30.3193 36.4944 29.5258 36.4944C28.7322 36.4944 28.0889 37.1377 28.0889 37.9313C28.0889 38.7249 28.7322 39.3682 29.5258 39.3682Z" fill="url(#paint10_linear_1_331)"/>
<path d="M33.8744 39.3682C34.668 39.3682 35.3113 38.7249 35.3113 37.9313C35.3113 37.1377 34.668 36.4944 33.8744 36.4944C33.0808 36.4944 32.4375 37.1377 32.4375 37.9313C32.4375 38.7249 33.0808 39.3682 33.8744 39.3682Z" fill="url(#paint11_linear_1_331)"/>
<path d="M62.9946 36.6458H43.2835C42.6112 36.6458 42.0108 37.1358 41.9467 37.8055C41.8722 38.5727 42.4752 39.2193 43.227 39.2193H62.992C63.7028 39.2193 64.2775 38.6446 64.2775 37.9338C64.2801 37.2205 63.7028 36.6458 62.9946 36.6458Z" fill="url(#paint12_linear_1_331)"/>
<path d="M88.5512 36.6458H68.8401C68.1679 36.6458 67.5674 37.1358 67.5033 37.8055C67.4289 38.5727 68.0319 39.2193 68.7837 39.2193H88.5486C89.2594 39.2193 89.8341 38.6446 89.8341 37.9338C89.8393 37.2205 89.2619 36.6458 88.5512 36.6458Z" fill="url(#paint13_linear_1_331)"/>
<path d="M95.9197 70.4745H16.2081C14.7892 70.4745 13.6396 69.325 13.6396 67.9061V57.6195C13.6396 56.2005 14.7892 55.051 16.2081 55.051H95.9197C97.3386 55.051 98.4881 56.2005 98.4881 57.6195V67.9061C98.4881 69.325 97.3386 70.4745 95.9197 70.4745Z" fill="white"/>
<path d="M25.1762 64.2009C25.9697 64.2009 26.613 63.5576 26.613 62.764C26.613 61.9705 25.9697 61.3271 25.1762 61.3271C24.3826 61.3271 23.7393 61.9705 23.7393 62.764C23.7393 63.5576 24.3826 64.2009 25.1762 64.2009Z" fill="url(#paint14_linear_1_331)"/>
<path d="M29.5248 64.2009C30.3184 64.2009 30.9617 63.5576 30.9617 62.764C30.9617 61.9705 30.3184 61.3271 29.5248 61.3271C28.7312 61.3271 28.0879 61.9705 28.0879 62.764C28.0879 63.5576 28.7312 64.2009 29.5248 64.2009Z" fill="url(#paint15_linear_1_331)"/>
<path d="M33.8744 64.2009C34.668 64.2009 35.3113 63.5576 35.3113 62.764C35.3113 61.9705 34.668 61.3271 33.8744 61.3271C33.0808 61.3271 32.4375 61.9705 32.4375 62.764C32.4375 63.5576 33.0808 64.2009 33.8744 64.2009Z" fill="url(#paint16_linear_1_331)"/>
<path d="M62.9946 61.4785H43.2835C42.6112 61.4785 42.0108 61.9686 41.9467 62.6383C41.8722 63.4055 42.4752 64.0521 43.227 64.0521H62.992C63.7028 64.0521 64.2775 63.4773 64.2775 62.7666C64.2801 62.0533 63.7028 61.4785 62.9946 61.4785Z" fill="url(#paint17_linear_1_331)"/>
<path d="M88.5512 61.4785H68.8401C68.1679 61.4785 67.5674 61.9686 67.5033 62.6383C67.4289 63.4055 68.0319 64.0521 68.7837 64.0521H88.5486C89.2594 64.0521 89.8341 63.4773 89.8341 62.7666C89.8393 62.0533 89.2619 61.4785 88.5512 61.4785Z" fill="url(#paint18_linear_1_331)"/>
<path d="M75.2005 98.717H36.9278C35.5089 98.717 34.3594 97.5675 34.3594 96.1486V91.0245C34.3594 89.6056 35.5089 88.4561 36.9278 88.4561H75.2005C76.6194 88.4561 77.7689 89.6056 77.7689 91.0245V96.1486C77.7689 97.5649 76.6194 98.717 75.2005 98.717Z" fill="white"/>
<path d="M110.019 92.3024H79.0515V91.022C79.0515 88.8975 77.3247 87.1707 75.2001 87.1707H63.1379C62.4297 87.1707 61.855 87.7454 61.855 88.4536C61.855 89.1618 62.4297 89.7365 63.1379 89.7365H75.2001C75.9083 89.7365 76.4856 90.3139 76.4856 91.022V96.1461C76.4856 96.8543 75.9083 97.4316 75.2001 97.4316H36.9275C36.2193 97.4316 35.642 96.8543 35.642 96.1461V91.022C35.642 90.3139 36.2193 89.7365 36.9275 89.7365H56.0638C56.772 89.7365 57.3467 89.1618 57.3467 88.4536V78.8803C59.4508 78.8572 61.1571 77.1406 61.1571 75.0315V71.7574H95.9196C98.0441 71.7574 99.771 70.0306 99.771 67.906V57.622C99.771 55.4975 98.0441 53.7706 95.9196 53.7706H95.1909V46.9274H95.9196C98.0441 46.9274 99.771 45.2006 99.771 43.076V32.7894C99.771 30.6649 98.0441 28.938 95.9196 28.938H95.1909V22.0948H95.9196C98.0441 22.0948 99.771 20.368 99.771 18.2435V7.95685C99.771 5.83231 98.0441 4.10547 95.9196 4.10547H16.208C14.0835 4.10547 12.3566 5.83231 12.3566 7.95685V18.2435C12.3566 20.368 14.0835 22.0948 16.208 22.0948H16.9367V28.938H16.208C14.0835 28.938 12.3566 30.6649 12.3566 32.7894V43.0735C12.3566 45.198 14.0835 46.9249 16.208 46.9249H16.9367V53.7681H16.208C14.0835 53.7681 12.3566 55.4949 12.3566 57.6194V67.906C12.3566 70.0306 14.0835 71.7574 16.208 71.7574H50.9705V75.0315C50.9705 77.1406 52.6768 78.8572 54.7809 78.8803V87.1707H36.9275C34.8029 87.1707 33.0761 88.8975 33.0761 91.022V92.3024H2.11106C1.40288 92.3024 0.828125 92.8772 0.828125 93.5854C0.828125 94.2935 1.40288 94.8683 2.11106 94.8683H33.0787V96.1487C33.0787 98.2732 34.8055 100 36.93 100H75.2027C77.3272 100 79.0541 98.2732 79.0541 96.1487V94.8683H110.022C110.73 94.8683 111.305 94.2935 111.305 93.5854C111.302 92.8772 110.727 92.3024 110.019 92.3024ZM14.9225 18.2435V7.95685C14.9225 7.24867 15.4998 6.67135 16.208 6.67135H95.9196C96.6278 6.67135 97.2051 7.24867 97.2051 7.95685V18.2435C97.2051 18.9516 96.6278 19.529 95.9196 19.529H16.208C15.4998 19.529 14.9225 18.9516 14.9225 18.2435ZM14.9225 43.0735V32.7894C14.9225 32.0812 15.4998 31.5039 16.208 31.5039H18.2197C18.9278 31.5039 19.5026 30.9292 19.5026 30.221C19.5026 30.2184 19.5026 30.2159 19.5026 30.2133V22.0948H92.625V28.938H25.2938C24.5856 28.938 24.0108 29.5128 24.0108 30.221C24.0108 30.9292 24.5856 31.5039 25.2938 31.5039H95.9196C96.6278 31.5039 97.2051 32.0812 97.2051 32.7894V43.0735C97.2051 43.7817 96.6278 44.359 95.9196 44.359H16.208C15.4998 44.359 14.9225 43.7842 14.9225 43.0735ZM19.5026 46.9249H92.625V53.7681H19.5026V46.9249ZM14.9225 67.906V57.622C14.9225 56.9138 15.4998 56.3365 16.208 56.3365H95.9196C96.6278 56.3365 97.2051 56.9138 97.2051 57.622V67.906C97.2051 68.6142 96.6278 69.1916 95.9196 69.1916H16.208C15.4998 69.1916 14.9225 68.6168 14.9225 67.906ZM53.5364 75.0315V71.7574H58.5912V75.0315C58.5912 75.7397 58.0139 76.317 57.3057 76.317H54.8219C54.1137 76.317 53.5364 75.7397 53.5364 75.0315Z" fill="url(#paint19_linear_1_331)"/>
<path d="M94.6522 86.08C93.944 86.08 93.3692 85.5052 93.3692 84.797C93.3692 83.9452 92.6764 83.2498 91.822 83.2498C91.1138 83.2498 90.5391 82.675 90.5391 81.9669C90.5391 81.2587 91.1138 80.6839 91.822 80.6839C92.6739 80.6839 93.3692 79.9911 93.3692 79.1367C93.3692 78.4285 93.944 77.8538 94.6522 77.8538C95.3604 77.8538 95.9351 78.4285 95.9351 79.1367C95.9351 79.9886 96.6279 80.6839 97.4823 80.6839C98.1905 80.6839 98.7653 81.2587 98.7653 81.9669C98.7653 82.675 98.1905 83.2498 97.4823 83.2498C96.6305 83.2498 95.9351 83.9426 95.9351 84.797C95.9351 85.5052 95.3604 86.08 94.6522 86.08Z" fill="#6583FE"/>
<path d="M108.015 74.9826C107.307 74.9826 106.733 74.4078 106.733 73.6996C106.733 72.8477 106.04 72.1524 105.185 72.1524C104.477 72.1524 103.902 71.5776 103.902 70.8695C103.902 70.1613 104.477 69.5865 105.185 69.5865C106.037 69.5865 106.733 68.8937 106.733 68.0393C106.733 67.3311 107.307 66.7563 108.015 66.7563C108.724 66.7563 109.298 67.3311 109.298 68.0393C109.298 68.8912 109.991 69.5865 110.846 69.5865C111.554 69.5865 112.129 70.1613 112.129 70.8695C112.129 71.5776 111.554 72.1524 110.846 72.1524C109.994 72.1524 109.298 72.8452 109.298 73.6996C109.298 74.4078 108.726 74.9826 108.015 74.9826Z" fill="#6583FE"/>
<path d="M4.10764 30.8368C3.7792 30.8368 3.45077 30.7111 3.19932 30.4622L0.374283 27.6372C-0.126063 27.1368 -0.126063 26.3234 0.374283 25.8231L3.19932 22.9981C3.69966 22.4977 4.51305 22.4977 5.01339 22.9981L7.83843 25.8231C8.33877 26.3234 8.33877 27.1368 7.83843 27.6372L5.01339 30.4622C4.7645 30.7111 4.43607 30.8368 4.10764 30.8368ZM3.09668 26.7289L4.10764 27.7372L5.11859 26.7289L4.10764 25.7205L3.09668 26.7289Z" fill="#6583FE"/>
<path d="M8.91135 87.8197C8.58292 87.8197 8.25448 87.694 8.00303 87.4451L5.17799 84.6201C4.67765 84.1197 4.67765 83.3064 5.17799 82.806L8.00303 79.981C8.50337 79.4806 9.31676 79.4806 9.8171 79.981L12.6421 82.806C13.1425 83.3064 13.1425 84.1197 12.6421 84.6201L9.81967 87.4451C9.56821 87.6966 9.23978 87.8197 8.91135 87.8197ZM7.90296 83.7143L8.91135 84.7227L9.91974 83.7143L8.91135 82.7059L7.90296 83.7143Z" fill="#6583FE"/>
</g>
<defs>
<linearGradient id="paint0_linear_1_331" x1="94.9422" y1="9.0165e-08" x2="94.6309" y2="16.9143" gradientUnits="userSpaceOnUse">
<stop stop-color="#61DCDF"/>
<stop offset="1" stop-color="#886CFF"/>
</linearGradient>
<linearGradient id="paint1_linear_1_331" x1="94.9422" y1="24.8325" x2="94.631" y2="41.744" gradientUnits="userSpaceOnUse">
<stop stop-color="#61DCDF"/>
<stop offset="1" stop-color="#886CFF"/>
</linearGradient>
<linearGradient id="paint2_linear_1_331" x1="94.9422" y1="49.665" x2="94.631" y2="66.5765" gradientUnits="userSpaceOnUse">
<stop stop-color="#61DCDF"/>
<stop offset="1" stop-color="#886CFF"/>
</linearGradient>
<linearGradient id="paint3_linear_1_331" x1="75.9548" y1="83.0652" x2="75.6855" y2="94.3153" gradientUnits="userSpaceOnUse">
<stop stop-color="#61DCDF"/>
<stop offset="1" stop-color="#886CFF"/>
</linearGradient>
<linearGradient id="paint4_linear_1_331" x1="26.4929" y1="11.6619" x2="26.177" y2="14.7825" gradientUnits="userSpaceOnUse">
<stop stop-color="#61DCDF"/>
<stop offset="1" stop-color="#886CFF"/>
</linearGradient>
<linearGradient id="paint5_linear_1_331" x1="30.8425" y1="11.6619" x2="30.5266" y2="14.7825" gradientUnits="userSpaceOnUse">
<stop stop-color="#61DCDF"/>
<stop offset="1" stop-color="#886CFF"/>
</linearGradient>
<linearGradient id="paint6_linear_1_331" x1="35.1912" y1="11.6619" x2="34.8752" y2="14.7825" gradientUnits="userSpaceOnUse">
<stop stop-color="#61DCDF"/>
<stop offset="1" stop-color="#886CFF"/>
</linearGradient>
<linearGradient id="paint7_linear_1_331" x1="63.344" y1="11.8132" x2="63.3111" y2="14.6361" gradientUnits="userSpaceOnUse">
<stop stop-color="#61DCDF"/>
<stop offset="1" stop-color="#886CFF"/>
</linearGradient>
<linearGradient id="paint8_linear_1_331" x1="88.9007" y1="11.8132" x2="88.8677" y2="14.6361" gradientUnits="userSpaceOnUse">
<stop stop-color="#61DCDF"/>
<stop offset="1" stop-color="#886CFF"/>
</linearGradient>
<linearGradient id="paint9_linear_1_331" x1="26.4929" y1="36.4944" x2="26.177" y2="39.615" gradientUnits="userSpaceOnUse">
<stop stop-color="#61DCDF"/>
<stop offset="1" stop-color="#886CFF"/>
</linearGradient>
<linearGradient id="paint10_linear_1_331" x1="30.8425" y1="36.4944" x2="30.5266" y2="39.615" gradientUnits="userSpaceOnUse">
<stop stop-color="#61DCDF"/>
<stop offset="1" stop-color="#886CFF"/>
</linearGradient>
<linearGradient id="paint11_linear_1_331" x1="35.1912" y1="36.4944" x2="34.8752" y2="39.615" gradientUnits="userSpaceOnUse">
<stop stop-color="#61DCDF"/>
<stop offset="1" stop-color="#886CFF"/>
</linearGradient>
<linearGradient id="paint12_linear_1_331" x1="63.344" y1="36.6458" x2="63.3111" y2="39.4687" gradientUnits="userSpaceOnUse">
<stop stop-color="#61DCDF"/>
<stop offset="1" stop-color="#886CFF"/>
</linearGradient>
<linearGradient id="paint13_linear_1_331" x1="88.9007" y1="36.6458" x2="88.8677" y2="39.4687" gradientUnits="userSpaceOnUse">
<stop stop-color="#61DCDF"/>
<stop offset="1" stop-color="#886CFF"/>
</linearGradient>
<linearGradient id="paint14_linear_1_331" x1="26.4929" y1="61.3271" x2="26.177" y2="64.4478" gradientUnits="userSpaceOnUse">
<stop stop-color="#61DCDF"/>
<stop offset="1" stop-color="#886CFF"/>
</linearGradient>
<linearGradient id="paint15_linear_1_331" x1="30.8416" y1="61.3271" x2="30.5256" y2="64.4478" gradientUnits="userSpaceOnUse">
<stop stop-color="#61DCDF"/>
<stop offset="1" stop-color="#886CFF"/>
</linearGradient>
<linearGradient id="paint16_linear_1_331" x1="35.1912" y1="61.3271" x2="34.8752" y2="64.4478" gradientUnits="userSpaceOnUse">
<stop stop-color="#61DCDF"/>
<stop offset="1" stop-color="#886CFF"/>
</linearGradient>
<linearGradient id="paint17_linear_1_331" x1="63.344" y1="61.4785" x2="63.3111" y2="64.3014" gradientUnits="userSpaceOnUse">
<stop stop-color="#61DCDF"/>
<stop offset="1" stop-color="#886CFF"/>
</linearGradient>
<linearGradient id="paint18_linear_1_331" x1="88.9007" y1="61.4785" x2="88.8677" y2="64.3014" gradientUnits="userSpaceOnUse">
<stop stop-color="#61DCDF"/>
<stop offset="1" stop-color="#886CFF"/>
</linearGradient>
<linearGradient id="paint19_linear_1_331" x1="106.688" y1="4.10547" x2="97.5123" y2="108.498" gradientUnits="userSpaceOnUse">
<stop stop-color="#61DCDF"/>
<stop offset="1" stop-color="#886CFF"/>
</linearGradient>
<clipPath id="clip0_1_331">
<rect width="112.129" height="100" fill="white"/>
</clipPath>
</defs>
</svg>
