<svg width="116" height="100" viewBox="0 0 116 100" fill="none" xmlns="http://www.w3.org/2000/svg">
<path opacity="0.1" d="M72.6927 29.0917H42.4785C41.2323 29.0917 40.2246 28.0817 40.2246 26.8378V2.25391C40.2224 1.00999 41.2323 0 42.4785 0H72.6927C73.9389 0 74.9466 1.00999 74.9466 2.25391V26.8355C74.9466 28.0817 73.9389 29.0917 72.6927 29.0917Z" fill="url(#paint0_linear_1_370)"/>
<path opacity="0.1" d="M69.3118 63.9756H45.8594C44.6132 63.9756 43.6055 62.9656 43.6055 61.7217V47.2849C43.6055 46.0387 44.6155 45.031 45.8594 45.031H69.3118C70.558 45.031 71.5657 46.041 71.5657 47.2849V61.7217C71.5657 62.9656 70.5557 63.9756 69.3118 63.9756Z" fill="url(#paint1_linear_1_370)"/>
<path opacity="0.1" d="M105.831 45.0289H95.2293V44.615C95.2293 41.5085 92.7032 38.9824 89.5967 38.9824H25.5761C22.4697 38.9824 19.9436 41.5085 19.9436 44.615V45.0289H9.33985C8.09368 45.0289 7.08594 46.0388 7.08594 47.2828V61.7195C7.08594 62.9657 8.09593 63.9734 9.33985 63.9734H32.7923C34.0384 63.9734 35.0462 62.9635 35.0462 61.7195V47.2828C35.0462 46.0366 34.0362 45.0289 32.7923 45.0289H22.1908V44.615C22.1908 42.7502 23.7091 41.2318 25.5739 41.2318H89.5945C91.4615 41.2318 92.9776 42.7502 92.9776 44.615V45.0289H82.3761C81.1299 45.0289 80.1222 46.0388 80.1222 47.2828V61.7195C80.1222 62.9657 81.1322 63.9734 82.3761 63.9734H105.829C107.075 63.9734 108.082 62.9635 108.082 61.7195V47.2828C108.085 46.0388 107.075 45.0289 105.831 45.0289Z" fill="url(#paint2_linear_1_370)"/>
<path d="M72.6917 33.1405H42.4775C41.2314 33.1405 40.2236 32.1305 40.2236 30.8866V6.30274C40.2236 5.05657 41.2336 4.04883 42.4775 4.04883H72.6917C73.9379 4.04883 74.9456 5.05882 74.9456 6.30274V30.8843C74.9456 32.1305 73.9379 33.1405 72.6917 33.1405Z" fill="white"/>
<path d="M72.6918 4.04883H65.0078V33.1405H72.6918C73.938 33.1405 74.9457 32.1305 74.9457 30.8866V6.30274C74.9457 5.05882 73.938 4.04883 72.6918 4.04883Z" fill="white"/>
<path d="M74.9456 11.4134V6.30274C74.9456 5.05657 73.9356 4.04883 72.6917 4.04883H42.4775C41.2314 4.04883 40.2236 5.05882 40.2236 6.30274V11.4134H74.9456Z" fill="#6583FE" fill-opacity="0.1"/>
<path d="M60.4781 25.8503H47.2695C46.6464 25.8503 46.1426 25.3465 46.1426 24.7234C46.1426 24.1003 46.6464 23.5964 47.2695 23.5964H60.4781C61.1012 23.5964 61.6051 24.1003 61.6051 24.7234C61.6051 25.3465 61.0989 25.8503 60.4781 25.8503Z" fill="url(#paint3_linear_1_370)"/>
<path d="M54.3889 21.1714H47.2695C46.6464 21.1714 46.1426 20.6675 46.1426 20.0444C46.1426 19.4214 46.6464 18.9175 47.2695 18.9175H54.3889C55.012 18.9175 55.5159 19.4214 55.5159 20.0444C55.5159 20.6675 55.012 21.1714 54.3889 21.1714Z" fill="url(#paint4_linear_1_370)"/>
<path d="M32.7923 68.0246H9.33985C8.09368 68.0246 7.08594 67.0147 7.08594 65.7707V51.334C7.08594 50.0878 8.09593 49.0801 9.33985 49.0801H32.7923C34.0384 49.0801 35.0462 50.0901 35.0462 51.334V65.7707C35.0484 67.0147 34.0384 68.0246 32.7923 68.0246Z" fill="white"/>
<path d="M32.7923 68.0246H9.33985C8.09368 68.0246 7.08594 67.0147 7.08594 65.7707V51.334C7.08594 50.0878 8.09593 49.0801 9.33985 49.0801H32.7923C34.0384 49.0801 35.0462 50.0901 35.0462 51.334V65.7707C35.0484 67.0147 34.0384 68.0246 32.7923 68.0246Z" fill="white"/>
<path d="M35.0484 56.4445V51.3316C35.0484 50.0854 34.0384 49.0776 32.7945 49.0776H9.33985C8.09368 49.0776 7.08594 50.0876 7.08594 51.3316V56.4422H35.0484V56.4445Z" fill="#6583FE" fill-opacity="0.1"/>
<path d="M28.0005 62.9431H14.1328C13.5097 62.9431 13.0059 62.4393 13.0059 61.8162C13.0059 61.1931 13.5097 60.6892 14.1328 60.6892H28.0005C28.6235 60.6892 29.1274 61.1931 29.1274 61.8162C29.1274 62.4393 28.6235 62.9431 28.0005 62.9431Z" fill="url(#paint5_linear_1_370)"/>
<path d="M69.3108 68.0246H45.8584C44.6122 68.0246 43.6045 67.0147 43.6045 65.7707V51.334C43.6045 50.0878 44.6145 49.0801 45.8584 49.0801H69.3108C70.557 49.0801 71.5647 50.0901 71.5647 51.334V65.7707C71.5647 67.0147 70.5547 68.0246 69.3108 68.0246Z" fill="white"/>
<path d="M71.5647 56.4445V51.3316C71.5647 50.0854 70.5547 49.0776 69.3108 49.0776H45.8584C44.6122 49.0776 43.6045 50.0876 43.6045 51.3316V56.4422H71.5647V56.4445Z" fill="#6583FE" fill-opacity="0.1"/>
<path d="M64.52 62.9431H50.6523C50.0293 62.9431 49.5254 62.4393 49.5254 61.8162C49.5254 61.1931 50.0293 60.6892 50.6523 60.6892H64.52C65.1431 60.6892 65.647 61.1931 65.647 61.8162C65.647 62.4393 65.1408 62.9431 64.52 62.9431Z" fill="url(#paint6_linear_1_370)"/>
<path d="M105.83 68.0246H82.3779C81.1318 68.0246 80.124 67.0147 80.124 65.7707V51.334C80.124 50.0878 81.134 49.0801 82.3779 49.0801H105.83C107.077 49.0801 108.084 50.0901 108.084 51.334V65.7707C108.084 67.0147 107.074 68.0246 105.83 68.0246Z" fill="white"/>
<path d="M108.084 56.4445V51.3316C108.084 50.0854 107.074 49.0776 105.83 49.0776H82.3779C81.1318 49.0776 80.124 50.0876 80.124 51.3316V56.4422H108.084V56.4445Z" fill="#6583FE" fill-opacity="0.1"/>
<path d="M101.037 62.9431H87.1689C86.5459 62.9431 86.042 62.4393 86.042 61.8162C86.042 61.1931 86.5459 60.6892 87.1689 60.6892H101.037C101.66 60.6892 102.164 61.1931 102.164 61.8162C102.164 62.4393 101.66 62.9431 101.037 62.9431Z" fill="url(#paint7_linear_1_370)"/>
<path opacity="0.1" d="M88.9213 75.8794H78.3198V75.4655C78.3198 72.3591 75.7937 69.833 72.6872 69.833H42.4821C39.3756 69.833 36.8496 72.3591 36.8496 75.4655V75.8794H26.2481C25.0019 75.8794 23.9941 76.8894 23.9941 78.1333V92.5701C23.9941 93.8163 25.0041 94.824 26.2481 94.824H49.7005C50.9466 94.824 51.9544 93.814 51.9544 92.5701V78.1333C51.9544 76.8872 50.9444 75.8794 49.7005 75.8794H39.099V75.4655C39.099 73.5985 40.6173 72.0824 42.4821 72.0824H72.6895C74.5565 72.0824 76.0726 73.6008 76.0726 75.4655V75.8794H65.4711C64.2249 75.8794 63.2172 76.8894 63.2172 78.1333V92.5701C63.2172 93.8163 64.2272 94.824 65.4711 94.824H88.9235C90.1697 94.824 91.1774 93.814 91.1774 92.5701V78.1333C91.1774 76.8894 90.1674 75.8794 88.9213 75.8794Z" fill="url(#paint8_linear_1_370)"/>
<path d="M49.6985 98.8752H26.2461C24.9999 98.8752 23.9922 97.8653 23.9922 96.6213V82.1846C23.9922 80.9384 25.0022 79.9307 26.2461 79.9307H49.6985C50.9447 79.9307 51.9524 80.9406 51.9524 82.1846V96.6213C51.9547 97.8675 50.9447 98.8752 49.6985 98.8752Z" fill="white"/>
<path d="M51.9547 87.2952V82.1846C51.9547 80.9384 50.9447 79.9307 49.7008 79.9307H26.2461C24.9999 79.9307 23.9922 80.9406 23.9922 82.1846V87.2952H51.9547Z" fill="#6583FE" fill-opacity="0.1"/>
<path d="M44.9077 93.7962H31.04C30.417 93.7962 29.9131 93.2923 29.9131 92.6692C29.9131 92.0461 30.417 91.5422 31.04 91.5422H44.9077C45.5308 91.5422 46.0346 92.0461 46.0346 92.6692C46.0346 93.2923 45.5308 93.7962 44.9077 93.7962Z" fill="url(#paint9_linear_1_370)"/>
<path d="M88.9218 98.8752H65.4717C64.2255 98.8752 63.2178 97.8653 63.2178 96.6213V82.1846C63.2178 80.9384 64.2278 79.9307 65.4717 79.9307H88.9241C90.1703 79.9307 91.178 80.9406 91.178 82.1846V96.6213C91.178 97.8675 90.168 98.8752 88.9218 98.8752Z" fill="white"/>
<path d="M91.178 87.2952V82.1846C91.178 80.9384 90.168 79.9307 88.9241 79.9307H65.4717C64.2255 79.9307 63.2178 80.9406 63.2178 82.1846V87.2952H91.178Z" fill="#6583FE" fill-opacity="0.1"/>
<path d="M84.1303 93.7962H70.2627C69.6396 93.7962 69.1357 93.2923 69.1357 92.6692C69.1357 92.0461 69.6396 91.5422 70.2627 91.5422H84.1303C84.7534 91.5422 85.2573 92.0461 85.2573 92.6692C85.2573 93.2923 84.7534 93.7962 84.1303 93.7962Z" fill="url(#paint10_linear_1_370)"/>
<path d="M105.83 47.9531H95.229C95.2087 44.8624 92.6916 42.3566 89.5964 42.3566H58.7097V34.2654H72.6921C74.5546 34.2654 76.0707 32.7493 76.0707 30.8868V17.6242C76.0707 17.0034 75.5668 16.4995 74.946 16.4995C74.3252 16.4995 73.8213 17.0034 73.8213 17.6242V30.8868C73.8213 31.5099 73.3152 32.016 72.6921 32.016H42.4779C41.8549 32.016 41.3487 31.5099 41.3487 30.8868V12.5383H74.9482C75.5691 12.5383 76.073 12.0344 76.073 11.4136V6.30294C76.073 4.44042 74.5569 2.92432 72.6943 2.92432H42.4779C40.6154 2.92432 39.0993 4.44042 39.0993 6.30294V30.8845C39.0993 32.7471 40.6154 34.2632 42.4779 34.2632H56.4603V42.3543H25.5758C22.4829 42.3543 19.9635 44.8624 19.9433 47.9509H9.33956C7.47704 47.9509 5.96094 49.467 5.96094 51.3295V65.7662C5.96094 67.6287 7.47704 69.1449 9.33956 69.1449H32.792C34.6545 69.1449 36.1706 67.6287 36.1706 65.7662V51.3317C36.1706 49.4692 34.6545 47.9531 32.792 47.9531H22.1927C22.213 46.1041 23.7201 44.606 25.5758 44.606H56.4603V47.9531H45.8588C43.9963 47.9531 42.4802 49.4692 42.4802 51.3317V65.7685C42.4802 67.631 43.9963 69.1471 45.8588 69.1471H56.4603V73.205H42.4824C39.3872 73.205 36.8702 75.7131 36.8499 78.8016H26.2484C24.3859 78.8016 22.8698 80.3177 22.8698 82.1802V96.617C22.8698 98.4795 24.3859 99.9956 26.2484 99.9956H49.7008C51.5633 99.9956 53.0794 98.4795 53.0794 96.617V82.1802C53.0794 80.3154 51.5633 78.8016 49.7008 78.8016H39.1016C39.1218 76.9526 40.6289 75.4545 42.4847 75.4545H72.6921C74.5456 75.4545 76.055 76.9526 76.0752 78.8016H65.476C63.6134 78.8016 62.0973 80.3177 62.0973 82.1802V96.617C62.0973 98.4795 63.6134 99.9956 65.476 99.9956H88.9284C90.7909 99.9956 92.307 98.4795 92.307 96.617V82.1802C92.307 80.3154 90.7909 78.8016 88.9284 78.8016H78.3269C78.3066 75.7131 75.7895 73.205 72.6943 73.205H58.7097V69.1471H69.3112C71.1737 69.1471 72.6898 67.631 72.6898 65.7685V51.3317C72.6898 49.4692 71.1737 47.9531 69.3112 47.9531H58.7097V44.606H89.5942C91.4477 44.606 92.9571 46.1041 92.9773 47.9531H82.3781C80.5156 47.9531 78.9995 49.4692 78.9995 51.3317V65.7685C78.9995 67.631 80.5156 69.1471 82.3781 69.1471H105.83C107.693 69.1471 109.209 67.631 109.209 65.7685V51.3317C109.209 49.4692 107.693 47.9531 105.83 47.9531ZM41.3465 6.30294C41.3465 5.67985 41.8526 5.17373 42.4757 5.17373H72.6898C73.3129 5.17373 73.819 5.67985 73.819 6.30294V10.2889H41.3465V6.30294ZM32.792 66.8999H9.33956C8.71647 66.8999 8.21035 66.3938 8.21035 65.7707V57.5694H33.9234V65.7707C33.9234 66.3938 33.4151 66.8999 32.792 66.8999ZM33.9234 51.3317V55.3177H8.21035V51.3317C8.21035 50.7086 8.71647 50.2025 9.33956 50.2025H32.792C33.4151 50.2025 33.9234 50.7086 33.9234 51.3317ZM50.83 82.1847V96.6215C50.83 97.2445 50.3239 97.7507 49.7008 97.7507H26.2462C25.6231 97.7507 25.117 97.2445 25.117 96.6215V88.4201H45.7463C46.3672 88.4201 46.8711 87.9162 46.8711 87.2954C46.8711 86.6745 46.3672 86.1707 45.7463 86.1707H25.117V82.1847C25.117 81.5616 25.6231 81.0555 26.2462 81.0555H49.6986C50.3217 81.0533 50.83 81.5616 50.83 82.1847ZM88.9216 97.7507H65.4715C64.8484 97.7507 64.3423 97.2445 64.3423 96.6215V88.4201H90.0553V96.6215C90.0531 97.2445 89.5447 97.7507 88.9216 97.7507ZM90.0531 82.1847V86.1707H64.34V82.1847C64.34 81.5616 64.8461 81.0555 65.4692 81.0555H88.9216C89.5447 81.0533 90.0531 81.5616 90.0531 82.1847ZM69.3112 66.8999H45.8588C45.2357 66.8999 44.7296 66.3938 44.7296 65.7707V57.5694H70.4427V65.7707C70.4404 66.3938 69.9343 66.8999 69.3112 66.8999ZM70.4404 51.3317V55.3177H44.7296V51.3317C44.7296 50.7086 45.2357 50.2025 45.8588 50.2025H69.3112C69.9343 50.2025 70.4404 50.7086 70.4404 51.3317ZM82.3781 50.2025H105.83C106.454 50.2025 106.96 50.7086 106.96 51.3317V55.3177H81.2466V51.3317C81.2466 50.7086 81.755 50.2025 82.3781 50.2025ZM105.83 66.8999H82.3781C81.755 66.8999 81.2489 66.3938 81.2489 65.7707V57.5694H106.96V65.7707C106.96 66.3938 106.454 66.8999 105.83 66.8999Z" fill="url(#paint11_linear_1_370)"/>
<path d="M29.128 22.5909C28.5071 22.5909 28.0033 22.087 28.0033 21.4662C28.0033 20.7194 27.3959 20.1121 26.6491 20.1121C26.0283 20.1121 25.5244 19.6082 25.5244 18.9874C25.5244 18.3665 26.0283 17.8626 26.6491 17.8626C27.3959 17.8626 28.0033 17.2553 28.0033 16.5085C28.0033 15.8877 28.5071 15.3838 29.128 15.3838C29.7488 15.3838 30.2527 15.8877 30.2527 16.5085C30.2527 17.2553 30.86 17.8626 31.6068 17.8626C32.2277 17.8626 32.7315 18.3665 32.7315 18.9874C32.7315 19.6082 32.2277 20.1121 31.6068 20.1121C30.86 20.1121 30.2527 20.7194 30.2527 21.4662C30.2527 22.087 29.7488 22.5909 29.128 22.5909Z" fill="#6583FE" fill-opacity="0.1"/>
<path d="M100.324 82.2792C99.7034 82.2792 99.1996 81.7753 99.1996 81.1544C99.1996 80.4076 98.5922 79.8003 97.8454 79.8003C97.2246 79.8003 96.7207 79.2964 96.7207 78.6756C96.7207 78.0548 97.2246 77.5509 97.8454 77.5509C98.5922 77.5509 99.1996 76.9435 99.1996 76.1967C99.1996 75.5759 99.7034 75.072 100.324 75.072C100.945 75.072 101.449 75.5759 101.449 76.1967C101.449 76.9435 102.056 77.5509 102.803 77.5509C103.424 77.5509 103.928 78.0548 103.928 78.6756C103.928 79.2964 103.424 79.8003 102.803 79.8003C102.056 79.8003 101.449 80.4076 101.449 81.1544C101.449 81.7753 100.945 82.2792 100.324 82.2792Z" fill="#6583FE" fill-opacity="0.1"/>
<path d="M83.5641 38.0218C83.2762 38.0218 82.9882 37.9116 82.7678 37.6934L80.2889 35.2146C79.8503 34.7759 79.8503 34.0629 80.2889 33.6242L82.7678 31.1454C83.2064 30.7067 83.9195 30.7067 84.3581 31.1454L86.837 33.6242C87.2756 34.0629 87.2756 34.7759 86.837 35.2146L84.3581 37.6934C84.1399 37.9116 83.852 38.0218 83.5641 38.0218ZM82.6733 34.416L83.5618 35.3046L84.4504 34.416L83.5618 33.5275L82.6733 34.416Z" fill="#6583FE" fill-opacity="0.1"/>
<path d="M15.4854 90.899C15.1975 90.899 14.9096 90.7888 14.6891 90.5706L12.2103 88.0917C11.9988 87.8803 11.8818 87.5946 11.8818 87.2955C11.8818 86.9963 12.0011 86.7106 12.2103 86.4992L14.6891 84.0203C14.9006 83.8089 15.1862 83.6919 15.4854 83.6919C15.7846 83.6919 16.0702 83.8111 16.2817 84.0203L18.7606 86.4992C19.1992 86.9378 19.1992 87.6509 18.7606 88.0895L16.2817 90.5684C16.0612 90.7888 15.7733 90.899 15.4854 90.899ZM14.5969 87.2955L15.4854 88.184L16.3739 87.2955L15.4854 86.4069L14.5969 87.2955Z" fill="#6583FE" fill-opacity="0.1"/>
<path d="M65.0083 22.0869C66.7587 22.0869 68.1777 20.6679 68.1777 18.9175C68.1777 17.167 66.7587 15.748 65.0083 15.748C63.2579 15.748 61.8389 17.167 61.8389 18.9175C61.8389 20.6679 63.2579 22.0869 65.0083 22.0869Z" fill="url(#paint12_linear_1_370)"/>
<defs>
<linearGradient id="paint0_linear_1_370" x1="73.4955" y1="1.70069e-07" x2="70.8073" y2="31.6863" gradientUnits="userSpaceOnUse">
<stop stop-color="#61DCDF"/>
<stop offset="1" stop-color="#886CFF"/>
</linearGradient>
<linearGradient id="paint1_linear_1_370" x1="70.3972" y1="45.031" x2="68.978" y2="65.7163" gradientUnits="userSpaceOnUse">
<stop stop-color="#61DCDF"/>
<stop offset="1" stop-color="#886CFF"/>
</linearGradient>
<linearGradient id="paint2_linear_1_370" x1="103.862" y1="38.9824" x2="103.175" y2="66.381" gradientUnits="userSpaceOnUse">
<stop stop-color="#61DCDF"/>
<stop offset="1" stop-color="#886CFF"/>
</linearGradient>
<linearGradient id="paint3_linear_1_370" x1="60.9589" y1="23.5964" x2="60.9224" y2="26.0685" gradientUnits="userSpaceOnUse">
<stop stop-color="#61DCDF"/>
<stop offset="1" stop-color="#886CFF"/>
</linearGradient>
<linearGradient id="paint4_linear_1_370" x1="55.1242" y1="18.9175" x2="55.064" y2="21.3886" gradientUnits="userSpaceOnUse">
<stop stop-color="#61DCDF"/>
<stop offset="1" stop-color="#886CFF"/>
</linearGradient>
<linearGradient id="paint5_linear_1_370" x1="28.4537" y1="60.6892" x2="28.4187" y2="63.1613" gradientUnits="userSpaceOnUse">
<stop stop-color="#61DCDF"/>
<stop offset="1" stop-color="#886CFF"/>
</linearGradient>
<linearGradient id="paint6_linear_1_370" x1="64.9732" y1="60.6892" x2="64.9382" y2="63.1613" gradientUnits="userSpaceOnUse">
<stop stop-color="#61DCDF"/>
<stop offset="1" stop-color="#886CFF"/>
</linearGradient>
<linearGradient id="paint7_linear_1_370" x1="101.49" y1="60.6892" x2="101.455" y2="63.1613" gradientUnits="userSpaceOnUse">
<stop stop-color="#61DCDF"/>
<stop offset="1" stop-color="#886CFF"/>
</linearGradient>
<linearGradient id="paint8_linear_1_370" x1="88.3698" y1="69.833" x2="87.3386" y2="97.21" gradientUnits="userSpaceOnUse">
<stop stop-color="#61DCDF"/>
<stop offset="1" stop-color="#886CFF"/>
</linearGradient>
<linearGradient id="paint9_linear_1_370" x1="45.3609" y1="91.5422" x2="45.3259" y2="94.0143" gradientUnits="userSpaceOnUse">
<stop stop-color="#61DCDF"/>
<stop offset="1" stop-color="#886CFF"/>
</linearGradient>
<linearGradient id="paint10_linear_1_370" x1="84.5836" y1="91.5422" x2="84.5486" y2="94.0143" gradientUnits="userSpaceOnUse">
<stop stop-color="#61DCDF"/>
<stop offset="1" stop-color="#886CFF"/>
</linearGradient>
<linearGradient id="paint11_linear_1_370" x1="104.894" y1="2.92432" x2="94.8475" y2="108.458" gradientUnits="userSpaceOnUse">
<stop stop-color="#61DCDF"/>
<stop offset="1" stop-color="#886CFF"/>
</linearGradient>
<linearGradient id="paint12_linear_1_370" x1="67.9128" y1="15.748" x2="67.2158" y2="22.6314" gradientUnits="userSpaceOnUse">
<stop stop-color="#61DCDF"/>
<stop offset="1" stop-color="#886CFF"/>
</linearGradient>
</defs>
</svg>
