<svg width="98" height="100" viewBox="0 0 98 100" fill="none" xmlns="http://www.w3.org/2000/svg">
<g clip-path="url(#clip0_1_295)">
<path opacity="0.1" d="M96.2039 12.5966V72.9914C96.2039 74.9582 94.6076 76.5545 92.6408 76.5545H4.75061C2.78378 76.5545 1.1875 74.9582 1.1875 72.9914V12.5966C1.1875 10.6297 2.78378 9.03345 4.75061 9.03345H92.6408C94.6076 9.03345 96.2039 10.6297 96.2039 12.5966Z" fill="url(#paint0_linear_1_295)"/>
<path d="M62.1665 98.8122H35.2246L40.612 77.4573H56.7791L62.1665 98.8122Z" fill="white"/>
<path d="M96.2039 17.5851V77.9799C96.2039 79.9467 94.6076 81.543 92.6408 81.543H4.75061C2.78378 81.543 1.1875 79.9467 1.1875 77.9799V17.5851C1.1875 15.6182 2.78378 14.022 4.75061 14.022H92.6408C94.6076 14.022 96.2039 15.6182 96.2039 17.5851Z" fill="white"/>
<path d="M81.79 25.4644C81.79 43.7408 66.9746 58.5586 48.6958 58.5586C30.417 58.5586 15.6016 43.7408 15.6016 25.4644H81.79Z" fill="white"/>
<path d="M41.2988 69.5733C41.2988 65.4876 44.6102 62.1763 48.6959 62.1763C52.7816 62.1763 56.0929 65.4876 56.0929 69.5733H41.2988Z" fill="#6583FE"/>
<path d="M96.2039 25.4643V17.5851C96.2039 15.6182 94.6076 14.022 92.6408 14.022H4.75061C2.78378 14.022 1.1875 15.6182 1.1875 17.5851V25.4643H96.2039Z" fill="white"/>
<path d="M1.1875 69.5732V77.9798C1.1875 79.9467 2.78378 81.5429 4.75061 81.5429H92.6408C94.6076 81.5429 96.2039 79.9467 96.2039 77.9798V69.5732H1.1875Z" fill="white"/>
<path d="M48.6958 49.5271C37.6264 49.5271 28.6497 58.5014 28.6497 69.5732H21.0674C21.0674 54.3136 33.4361 41.9448 48.6958 41.9448V49.5271Z" fill="#6583FE"/>
<path d="M69.3291 51.2042L63.9559 56.5773C60.2835 52.2636 54.8082 49.5271 48.6963 49.5271V41.9448C56.901 41.9448 64.2718 45.5222 69.3291 51.2042Z" fill="#6583FE" fill-opacity="0.2"/>
<path d="M48.6963 41.9448V49.5271C42.5844 49.5271 37.109 52.2636 33.4367 56.5773L28.0635 51.2042C33.1207 45.5222 40.4916 41.9448 48.6963 41.9448Z" fill="white"/>
<path fill-rule="evenodd" clip-rule="evenodd" d="M22.2815 68.3855H27.4948C28.1109 57.2103 37.3668 48.3394 48.696 48.3394C60.0252 48.3394 69.2811 57.2103 69.8971 68.3855H75.1105C74.4894 54.3331 62.9016 43.1325 48.696 43.1325C34.4903 43.1325 22.9026 54.3331 22.2815 68.3855ZM19.8799 69.5732C19.8799 53.6576 32.7804 40.7571 48.696 40.7571C64.6116 40.7571 77.5121 53.6576 77.5121 69.5732V70.7609H67.5544V69.5732C67.5544 59.1573 59.1118 50.7148 48.696 50.7148C38.2801 50.7148 29.8376 59.1573 29.8376 69.5732V70.7609H19.8799V69.5732Z" fill="url(#paint1_linear_1_295)"/>
<path d="M55.6794 57.8007L55.6461 57.7793L56.0262 57.2211C56.3944 56.6795 56.2542 55.9407 55.7126 55.5701C55.171 55.202 54.4323 55.3421 54.0617 55.8837L53.6816 56.4419L53.6484 56.4205C53.1068 56.0524 52.368 56.1925 51.9975 56.7341C51.6293 57.2757 51.7694 58.0144 52.311 58.385L52.3443 58.4064L47.7122 65.2072C47.344 65.7488 47.4842 66.4875 48.0258 66.8581C48.2301 66.9983 48.4629 67.0648 48.6933 67.0648C49.0733 67.0648 49.4463 66.8819 49.6767 66.5446L54.3087 59.7437L54.342 59.7651C54.5463 59.9053 54.7791 59.9718 55.0095 59.9718C55.3896 59.9718 55.7625 59.7889 55.9929 59.4516C56.3611 58.9076 56.2209 58.1688 55.6794 57.8007Z" fill="url(#paint2_linear_1_295)"/>
<path d="M26.12 32.6094H10.3021C9.62991 32.6094 9.08594 32.0655 9.08594 31.3932C9.08594 30.721 9.62991 30.177 10.3021 30.177H26.12C26.7922 30.177 27.3362 30.721 27.3362 31.3932C27.3362 32.0655 26.7922 32.6094 26.12 32.6094Z" fill="url(#paint3_linear_1_295)"/>
<path d="M21.8439 37.1226H14.5775C13.9053 37.1226 13.3613 36.5786 13.3613 35.9064C13.3613 35.2342 13.9053 34.6902 14.5775 34.6902H21.8439C22.5162 34.6902 23.0601 35.2342 23.0601 35.9064C23.0601 36.5786 22.5162 37.1226 21.8439 37.1226Z" fill="url(#paint4_linear_1_295)"/>
<path d="M87.0897 32.6094H71.2719C70.5996 32.6094 70.0557 32.0655 70.0557 31.3932C70.0557 30.721 70.5996 30.177 71.2719 30.177H87.0897C87.762 30.177 88.3059 30.721 88.3059 31.3932C88.3059 32.0655 87.762 32.6094 87.0897 32.6094Z" fill="url(#paint5_linear_1_295)"/>
<path d="M82.8136 37.1226H75.5473C74.875 37.1226 74.3311 36.5786 74.3311 35.9064C74.3311 35.2342 74.875 34.6902 75.5473 34.6902H82.8136C83.4859 34.6902 84.0299 35.2342 84.0299 35.9064C84.0299 36.5786 83.4859 37.1226 82.8136 37.1226Z" fill="url(#paint6_linear_1_295)"/>
<path d="M19.8366 49.0023H16.5847C16.1904 49.0023 15.8721 48.684 15.8721 48.2897V42.4699C15.8721 42.0756 16.1904 41.7573 16.5847 41.7573H19.8366C20.2309 41.7573 20.5493 42.0756 20.5493 42.4699V48.2897C20.5493 48.6816 20.2309 49.0023 19.8366 49.0023Z" fill="#6583FE"/>
<path d="M80.8064 49.0023H77.5544C77.1601 49.0023 76.8418 48.684 76.8418 48.2897V42.4699C76.8418 42.0756 77.1601 41.7573 77.5544 41.7573H80.8064C81.2007 41.7573 81.519 42.0756 81.519 42.4699V48.2897C81.519 48.6816 81.2007 49.0023 80.8064 49.0023Z" fill="#6583FE"/>
<path d="M52.7126 37.2343C53.446 37.2343 54.0405 36.6398 54.0405 35.9065C54.0405 35.1731 53.446 34.5786 52.7126 34.5786C51.9793 34.5786 51.3848 35.1731 51.3848 35.9065C51.3848 36.6398 51.9793 37.2343 52.7126 37.2343Z" fill="url(#paint7_linear_1_295)"/>
<path d="M48.696 37.2343C49.4294 37.2343 50.0239 36.6398 50.0239 35.9065C50.0239 35.1731 49.4294 34.5786 48.696 34.5786C47.9627 34.5786 47.3682 35.1731 47.3682 35.9065C47.3682 36.6398 47.9627 37.2343 48.696 37.2343Z" fill="url(#paint8_linear_1_295)"/>
<path d="M44.6794 37.2343C45.4128 37.2343 46.0073 36.6398 46.0073 35.9065C46.0073 35.1731 45.4128 34.5786 44.6794 34.5786C43.9461 34.5786 43.3516 35.1731 43.3516 35.9065C43.3516 36.6398 43.9461 37.2343 44.6794 37.2343Z" fill="url(#paint9_linear_1_295)"/>
<path d="M17.4431 97.1065C17.139 97.1065 16.835 96.9901 16.6022 96.7597L13.9845 94.142C13.7612 93.9187 13.6377 93.617 13.6377 93.3011C13.6377 92.9852 13.7636 92.6835 13.9845 92.4602L16.6022 89.8425C17.0654 89.3793 17.8184 89.3793 18.2816 89.8425L20.8993 92.4602C21.1226 92.6835 21.2461 92.9852 21.2461 93.3011C21.2461 93.617 21.1202 93.9187 20.8993 94.142L18.2816 96.7597C18.0488 96.9901 17.7472 97.1065 17.4431 97.1065ZM16.5048 93.3011L17.4431 94.2394L18.3814 93.3011L17.4431 92.3628L16.5048 93.3011Z" fill="#6583FE"/>
<path d="M69.8699 10.4541C69.2142 10.4541 68.6822 9.92198 68.6822 9.26637C68.6822 8.47773 68.0408 7.83637 67.2522 7.83637C66.5965 7.83637 66.0645 7.30428 66.0645 6.64867C66.0645 5.99306 66.5965 5.46096 67.2522 5.46096C68.0408 5.46096 68.6822 4.8196 68.6822 4.03097C68.6822 3.37535 69.2142 2.84326 69.8699 2.84326C70.5255 2.84326 71.0576 3.37535 71.0576 4.03097C71.0576 4.8196 71.6989 5.46096 72.4876 5.46096C73.1432 5.46096 73.6753 5.99306 73.6753 6.64867C73.6753 7.30428 73.1432 7.83637 72.4876 7.83637C71.6989 7.83637 71.0576 8.47773 71.0576 9.26637C71.0576 9.92198 70.5255 10.4541 69.8699 10.4541Z" fill="#6583FE"/>
<path d="M73.8747 93.3488C73.2191 93.3488 72.687 92.8168 72.687 92.1611C72.687 91.3725 72.0457 90.7311 71.257 90.7311C70.6014 90.7311 70.0693 90.1991 70.0693 89.5434C70.0693 88.8878 70.6014 88.3557 71.257 88.3557C72.0457 88.3557 72.687 87.7144 72.687 86.9257C72.687 86.2701 73.2191 85.738 73.8747 85.738C74.5304 85.738 75.0624 86.2701 75.0624 86.9257C75.0624 87.7144 75.7038 88.3557 76.4924 88.3557C77.1481 88.3557 77.6801 88.8878 77.6801 89.5434C77.6801 90.1991 77.1481 90.7311 76.4924 90.7311C75.7038 90.7311 75.0624 91.3725 75.0624 92.1611C75.0624 92.8168 74.5304 93.3488 73.8747 93.3488Z" fill="#6583FE"/>
<path d="M83.4906 7.6083C83.1865 7.6083 82.8825 7.4919 82.6497 7.26149L80.032 4.64379C79.5688 4.18058 79.5688 3.42758 80.032 2.96437L82.6497 0.346671C83.1129 -0.116534 83.8659 -0.116534 84.3291 0.346671L86.9468 2.96437C87.41 3.42758 87.41 4.18058 86.9468 4.64379L84.3291 7.26149C84.0987 7.49428 83.7946 7.6083 83.4906 7.6083ZM82.5523 3.80527L83.4906 4.74355L84.4288 3.80527L83.4906 2.86698L82.5523 3.80527Z" fill="#6583FE"/>
<path d="M10.2336 18.5376C9.57799 18.5376 9.0459 19.0697 9.0459 19.7253V19.7609C9.0459 20.4165 9.57799 20.9486 10.2336 20.9486C10.8892 20.9486 11.4213 20.4165 11.4213 19.7609V19.7253C11.4213 19.0697 10.8892 18.5376 10.2336 18.5376Z" fill="url(#paint10_linear_1_295)"/>
<path d="M14.8254 18.5376C14.1698 18.5376 13.6377 19.0697 13.6377 19.7253V19.7609C13.6377 20.4165 14.1698 20.9486 14.8254 20.9486C15.481 20.9486 16.0131 20.4165 16.0131 19.7609V19.7253C16.0131 19.0697 15.481 18.5376 14.8254 18.5376Z" fill="url(#paint11_linear_1_295)"/>
<path d="M19.4143 18.5376C18.7587 18.5376 18.2266 19.0697 18.2266 19.7253V19.7609C18.2266 20.4165 18.7587 20.9486 19.4143 20.9486C20.0699 20.9486 20.602 20.4165 20.602 19.7609V19.7253C20.602 19.0697 20.0699 18.5376 19.4143 18.5376Z" fill="url(#paint12_linear_1_295)"/>
<path d="M92.641 12.8342H4.75082C2.13074 12.8342 0 14.965 0 17.585V77.9798C0 80.5999 2.13074 82.7306 4.75082 82.7306H38.0564L34.2985 97.6245H30.657C30.0014 97.6245 29.4693 98.1566 29.4693 98.8122C29.4693 99.4678 30.0014 99.9999 30.657 99.9999H66.7324C67.388 99.9999 67.9201 99.4678 67.9201 98.8122C67.9201 98.1566 67.388 97.6245 66.7324 97.6245H63.0909L59.333 82.7306H92.641C95.2611 82.7306 97.3918 80.5999 97.3918 77.9798V69.5733C97.3918 68.9176 96.8597 68.3856 96.2041 68.3856C96.1803 68.3856 96.1613 68.3903 96.1376 68.3927C96.1162 68.3903 96.0948 68.3856 96.0711 68.3856H2.37541V26.652H95.0164V63.0314C95.0164 63.687 95.5485 64.2191 96.2041 64.2191C96.8597 64.2191 97.3918 63.687 97.3918 63.0314V17.585C97.3918 14.965 95.2611 12.8342 92.641 12.8342ZM60.6418 97.6245H36.75L40.5079 82.7306H56.8839L60.6418 97.6245ZM95.0164 70.761V77.9798C95.0164 79.2887 93.9498 80.3552 92.641 80.3552H4.75082C3.44197 80.3552 2.37541 79.2887 2.37541 77.9798V70.761H95.0164ZM2.37541 24.2766V17.585C2.37541 16.2762 3.44197 15.2096 4.75082 15.2096H92.641C93.9498 15.2096 95.0164 16.2762 95.0164 17.585V24.2766H2.37541Z" fill="url(#paint13_linear_1_295)"/>
</g>
<defs>
<linearGradient id="paint0_linear_1_295" x1="92.2331" y1="9.03345" x2="86.9305" y2="82.7242" gradientUnits="userSpaceOnUse">
<stop stop-color="#61DCDF"/>
<stop offset="1" stop-color="#886CFF"/>
</linearGradient>
<linearGradient id="paint1_linear_1_295" x1="75.1036" y1="40.7571" x2="73.3732" y2="73.5808" gradientUnits="userSpaceOnUse">
<stop stop-color="#61DCDF"/>
<stop offset="1" stop-color="#886CFF"/>
</linearGradient>
<linearGradient id="paint2_linear_1_295" x1="55.867" y1="55.3647" x2="54.1556" y2="67.9676" gradientUnits="userSpaceOnUse">
<stop stop-color="#61DCDF"/>
<stop offset="1" stop-color="#886CFF"/>
</linearGradient>
<linearGradient id="paint3_linear_1_295" x1="26.5735" y1="30.177" x2="26.5375" y2="32.8449" gradientUnits="userSpaceOnUse">
<stop stop-color="#61DCDF"/>
<stop offset="1" stop-color="#886CFF"/>
</linearGradient>
<linearGradient id="paint4_linear_1_295" x1="22.6548" y1="34.6902" x2="22.5871" y2="37.3569" gradientUnits="userSpaceOnUse">
<stop stop-color="#61DCDF"/>
<stop offset="1" stop-color="#886CFF"/>
</linearGradient>
<linearGradient id="paint5_linear_1_295" x1="87.5432" y1="30.177" x2="87.5072" y2="32.8449" gradientUnits="userSpaceOnUse">
<stop stop-color="#61DCDF"/>
<stop offset="1" stop-color="#886CFF"/>
</linearGradient>
<linearGradient id="paint6_linear_1_295" x1="83.6245" y1="34.6902" x2="83.5568" y2="37.3569" gradientUnits="userSpaceOnUse">
<stop stop-color="#61DCDF"/>
<stop offset="1" stop-color="#886CFF"/>
</linearGradient>
<linearGradient id="paint7_linear_1_295" x1="53.9295" y1="34.5786" x2="53.6375" y2="37.4624" gradientUnits="userSpaceOnUse">
<stop stop-color="#61DCDF"/>
<stop offset="1" stop-color="#886CFF"/>
</linearGradient>
<linearGradient id="paint8_linear_1_295" x1="49.9129" y1="34.5786" x2="49.6209" y2="37.4624" gradientUnits="userSpaceOnUse">
<stop stop-color="#61DCDF"/>
<stop offset="1" stop-color="#886CFF"/>
</linearGradient>
<linearGradient id="paint9_linear_1_295" x1="45.8963" y1="34.5786" x2="45.6043" y2="37.4624" gradientUnits="userSpaceOnUse">
<stop stop-color="#61DCDF"/>
<stop offset="1" stop-color="#886CFF"/>
</linearGradient>
<linearGradient id="paint10_linear_1_295" x1="11.322" y1="18.5376" x2="11.053" y2="21.1549" gradientUnits="userSpaceOnUse">
<stop stop-color="#61DCDF"/>
<stop offset="1" stop-color="#886CFF"/>
</linearGradient>
<linearGradient id="paint11_linear_1_295" x1="15.9138" y1="18.5376" x2="15.6448" y2="21.1549" gradientUnits="userSpaceOnUse">
<stop stop-color="#61DCDF"/>
<stop offset="1" stop-color="#886CFF"/>
</linearGradient>
<linearGradient id="paint12_linear_1_295" x1="20.5027" y1="18.5376" x2="20.2337" y2="21.1549" gradientUnits="userSpaceOnUse">
<stop stop-color="#61DCDF"/>
<stop offset="1" stop-color="#886CFF"/>
</linearGradient>
<linearGradient id="paint13_linear_1_295" x1="93.3217" y1="12.8342" x2="84.7264" y2="107.678" gradientUnits="userSpaceOnUse">
<stop stop-color="#61DCDF"/>
<stop offset="1" stop-color="#886CFF"/>
</linearGradient>
<clipPath id="clip0_1_295">
<rect width="97.3918" height="100" fill="white"/>
</clipPath>
</defs>
</svg>
