<svg width="163" height="152" viewBox="0 0 163 152" fill="none" xmlns="http://www.w3.org/2000/svg">
<g opacity="0.75">
<path d="M45.0502 2.90395C45.0502 2.3297 44.8799 1.76837 44.5609 1.29087C44.242 0.813363 43.7886 0.441155 43.2581 0.221286C42.7276 0.00141763 42.1438 -0.0562704 41.5806 0.0555805C41.0173 0.167431 40.4999 0.443757 40.0936 0.84964C39.6874 1.25552 39.4106 1.77278 39.2983 2.33594C39.186 2.89909 39.2431 3.48291 39.4625 4.01358C39.6819 4.54426 40.0538 4.99796 40.531 5.31736C41.0082 5.63675 41.5695 5.8075 42.1437 5.80799C42.9141 5.80799 43.653 5.50204 44.198 4.95751C44.743 4.41298 45.0495 3.67437 45.0502 2.90395Z" fill="url(#paint0_linear_1_533)"/>
<path d="M64.6703 2.90392C64.6703 2.32956 64.5 1.76809 64.1809 1.29053C63.8618 0.812971 63.4083 0.440819 62.8776 0.221023C62.347 0.0012273 61.7631 -0.0562808 61.1997 0.0557703C60.6364 0.167821 60.119 0.444378 59.7128 0.850509C59.3067 1.25664 59.0302 1.77409 58.9181 2.33741C58.8061 2.90073 58.8636 3.48457 59.0834 4.01521C59.3032 4.54584 59.6754 4.99943 60.1529 5.31853C60.6305 5.63762 61.1919 5.80795 61.7663 5.80795C62.5365 5.80795 63.2751 5.50193 63.8197 4.95732C64.3643 4.41272 64.6703 3.6741 64.6703 2.90392Z" fill="url(#paint1_linear_1_533)"/>
<path d="M84.2972 2.90392C84.2972 2.32956 84.1269 1.76809 83.8078 1.29053C83.4887 0.812971 83.0352 0.440819 82.5045 0.221023C81.9739 0.0012273 81.39 -0.0562808 80.8267 0.0557703C80.2634 0.167821 79.7459 0.444378 79.3398 0.850509C78.9337 1.25664 78.6571 1.77409 78.5451 2.33741C78.433 2.90073 78.4905 3.48457 78.7103 4.01521C78.9301 4.54584 79.3023 4.99943 79.7799 5.31853C80.2574 5.63762 80.8189 5.80795 81.3932 5.80795C82.1634 5.80795 82.9021 5.50193 83.4467 4.95732C83.9913 4.41272 84.2972 3.6741 84.2972 2.90392Z" fill="url(#paint2_linear_1_533)"/>
<path d="M103.911 2.90392C103.911 2.32956 103.741 1.76809 103.422 1.29053C103.103 0.812971 102.649 0.440819 102.119 0.221023C101.588 0.0012273 101.004 -0.0562808 100.441 0.0557703C99.8776 0.167821 99.3602 0.444378 98.9541 0.850509C98.5479 1.25664 98.2714 1.77409 98.1593 2.33741C98.0473 2.90073 98.1048 3.48457 98.3246 4.01521C98.5444 4.54584 98.9166 4.99943 99.3941 5.31853C99.8717 5.63762 100.433 5.80795 101.007 5.80795C101.778 5.80795 102.516 5.50193 103.061 4.95732C103.606 4.41272 103.911 3.6741 103.911 2.90392Z" fill="url(#paint3_linear_1_533)"/>
<path d="M123.531 2.90392C123.531 2.32956 123.36 1.76809 123.041 1.29053C122.722 0.812971 122.269 0.440819 121.738 0.221023C121.207 0.0012273 120.623 -0.0562808 120.06 0.0557703C119.497 0.167821 118.979 0.444378 118.573 0.850509C118.167 1.25664 117.891 1.77409 117.778 2.33741C117.666 2.90073 117.724 3.48457 117.944 4.01521C118.164 4.54584 118.536 4.99943 119.013 5.31853C119.491 5.63762 120.052 5.80795 120.627 5.80795C121.397 5.80795 122.135 5.50193 122.68 4.95732C123.225 4.41272 123.531 3.6741 123.531 2.90392Z" fill="url(#paint4_linear_1_533)"/>
<path d="M25.4301 21.0843C25.4301 20.5099 25.2597 19.9485 24.9406 19.4709C24.6215 18.9933 24.168 18.6211 23.6373 18.4013C23.1067 18.1815 22.5228 18.124 21.9595 18.2361C21.3962 18.3481 20.8787 18.6247 20.4726 19.0308C20.0665 19.4369 19.7899 19.9544 19.6779 20.5177C19.5658 21.081 19.6233 21.6649 19.8431 22.1956C20.0629 22.7262 20.4351 23.1797 20.9127 23.4988C21.3902 23.8179 21.9517 23.9882 22.5261 23.9882C23.2962 23.9882 24.0349 23.6823 24.5795 23.1377C25.1241 22.5931 25.4301 21.8545 25.4301 21.0843Z" fill="url(#paint5_linear_1_533)"/>
<path d="M45.0502 21.0843C45.0502 20.51 44.8799 19.9486 44.5609 19.4711C44.242 18.9936 43.7886 18.6214 43.2581 18.4015C42.7276 18.1817 42.1438 18.124 41.5806 18.2359C41.0173 18.3477 40.4999 18.6241 40.0936 19.0299C39.6874 19.4358 39.4106 19.953 39.2983 20.5162C39.186 21.0793 39.2431 21.6631 39.4625 22.1938C39.6819 22.7245 40.0538 23.1782 40.531 23.4976C41.0082 23.817 41.5695 23.9877 42.1437 23.9882C42.9141 23.9882 43.653 23.6824 44.198 23.1378C44.743 22.5933 45.0495 21.8547 45.0502 21.0843Z" fill="url(#paint6_linear_1_533)"/>
<path d="M64.6703 21.0843C64.6703 20.5099 64.5 19.9485 64.1809 19.4709C63.8618 18.9933 63.4083 18.6211 62.8776 18.4013C62.347 18.1815 61.7631 18.124 61.1997 18.2361C60.6364 18.3481 60.119 18.6247 59.7128 19.0308C59.3067 19.4369 59.0302 19.9544 58.9181 20.5177C58.8061 21.081 58.8636 21.6649 59.0834 22.1956C59.3032 22.7262 59.6754 23.1797 60.1529 23.4988C60.6305 23.8179 61.1919 23.9882 61.7663 23.9882C62.5365 23.9882 63.2751 23.6823 63.8197 23.1377C64.3643 22.5931 64.6703 21.8545 64.6703 21.0843Z" fill="url(#paint7_linear_1_533)"/>
<path d="M84.2972 21.0843C84.2972 20.5099 84.1269 19.9485 83.8078 19.4709C83.4887 18.9933 83.0352 18.6211 82.5045 18.4013C81.9739 18.1815 81.39 18.124 80.8267 18.2361C80.2634 18.3481 79.7459 18.6247 79.3398 19.0308C78.9337 19.4369 78.6571 19.9544 78.5451 20.5177C78.433 21.081 78.4905 21.6649 78.7103 22.1956C78.9301 22.7262 79.3023 23.1797 79.7799 23.4988C80.2574 23.8179 80.8189 23.9882 81.3932 23.9882C82.1634 23.9882 82.9021 23.6823 83.4467 23.1377C83.9913 22.5931 84.2972 21.8545 84.2972 21.0843Z" fill="url(#paint8_linear_1_533)"/>
<path d="M103.911 21.0843C103.911 20.5099 103.741 19.9485 103.422 19.4709C103.103 18.9933 102.649 18.6211 102.119 18.4013C101.588 18.1815 101.004 18.124 100.441 18.2361C99.8776 18.3481 99.3602 18.6247 98.9541 19.0308C98.5479 19.4369 98.2714 19.9544 98.1593 20.5177C98.0473 21.081 98.1048 21.6649 98.3246 22.1956C98.5444 22.7262 98.9166 23.1797 99.3941 23.4988C99.8717 23.8179 100.433 23.9882 101.007 23.9882C101.778 23.9882 102.516 23.6823 103.061 23.1377C103.606 22.5931 103.911 21.8545 103.911 21.0843Z" fill="url(#paint9_linear_1_533)"/>
<path d="M123.531 21.0843C123.531 20.5099 123.36 19.9485 123.041 19.4709C122.722 18.9933 122.269 18.6211 121.738 18.4013C121.207 18.1815 120.623 18.124 120.06 18.2361C119.497 18.3481 118.979 18.6247 118.573 19.0308C118.167 19.4369 117.891 19.9544 117.778 20.5177C117.666 21.081 117.724 21.6649 117.944 22.1956C118.164 22.7262 118.536 23.1797 119.013 23.4988C119.491 23.8179 120.052 23.9882 120.627 23.9882C121.397 23.9882 122.135 23.6823 122.68 23.1377C123.225 22.5931 123.531 21.8545 123.531 21.0843Z" fill="url(#paint10_linear_1_533)"/>
<path d="M143.154 21.0843C143.154 20.5099 142.983 19.9485 142.664 19.4709C142.345 18.9933 141.892 18.6211 141.361 18.4013C140.83 18.1815 140.246 18.124 139.683 18.2361C139.12 18.3481 138.602 18.6247 138.196 19.0308C137.79 19.4369 137.514 19.9544 137.402 20.5177C137.289 21.081 137.347 21.6649 137.567 22.1956C137.787 22.7262 138.159 23.1797 138.636 23.4988C139.114 23.8179 139.675 23.9882 140.25 23.9882C141.02 23.9882 141.759 23.6823 142.303 23.1377C142.848 22.5931 143.154 21.8545 143.154 21.0843Z" fill="url(#paint11_linear_1_533)"/>
<path d="M5.80798 39.2643C5.80798 38.6899 5.63765 38.1285 5.31856 37.6509C4.99946 37.1733 4.54591 36.8011 4.01528 36.5813C3.48464 36.3615 2.90076 36.304 2.33744 36.4161C1.77412 36.5281 1.25667 36.8047 0.850539 37.2109C0.444409 37.617 0.167852 38.1345 0.0558008 38.6978C-0.0562503 39.2611 0.00125782 39.8449 0.221054 40.3756C0.44085 40.9062 0.813039 41.3598 1.2906 41.6789C1.76816 41.998 2.32963 42.1682 2.90398 42.1682C3.67417 42.1682 4.41279 41.8623 4.95739 41.3177C5.502 40.7731 5.80798 40.0345 5.80798 39.2643Z" fill="url(#paint12_linear_1_533)"/>
<path d="M25.4301 39.2643C25.4301 38.6899 25.2597 38.1285 24.9406 37.6509C24.6215 37.1733 24.168 36.8011 23.6373 36.5813C23.1067 36.3615 22.5228 36.304 21.9595 36.4161C21.3962 36.5281 20.8787 36.8047 20.4726 37.2109C20.0665 37.617 19.7899 38.1345 19.6779 38.6978C19.5658 39.2611 19.6233 39.8449 19.8431 40.3756C20.0629 40.9062 20.4351 41.3598 20.9127 41.6789C21.3902 41.998 21.9517 42.1682 22.5261 42.1682C23.2962 42.1682 24.0349 41.8623 24.5795 41.3177C25.1241 40.7731 25.4301 40.0345 25.4301 39.2643Z" fill="url(#paint13_linear_1_533)"/>
<path d="M45.0502 39.2642C45.0502 38.69 44.8799 38.1287 44.5609 37.6512C44.242 37.1737 43.7886 36.8014 43.2581 36.5816C42.7276 36.3617 42.1438 36.304 41.5806 36.4159C41.0173 36.5277 40.4999 36.804 40.0936 37.2099C39.6874 37.6158 39.4106 38.133 39.2983 38.6962C39.186 39.2593 39.2431 39.8432 39.4625 40.3739C39.6819 40.9046 40.0538 41.3583 40.531 41.6776C41.0082 41.997 41.5695 42.1677 42.1437 42.1682C42.9141 42.1682 43.653 41.8623 44.198 41.3178C44.743 40.7733 45.0495 40.0347 45.0502 39.2642Z" fill="url(#paint14_linear_1_533)"/>
<path d="M64.6703 39.2643C64.6703 38.6899 64.5 38.1285 64.1809 37.6509C63.8618 37.1733 63.4083 36.8011 62.8776 36.5813C62.347 36.3615 61.7631 36.304 61.1997 36.4161C60.6364 36.5281 60.119 36.8047 59.7128 37.2109C59.3067 37.617 59.0302 38.1345 58.9181 38.6978C58.8061 39.2611 58.8636 39.8449 59.0834 40.3756C59.3032 40.9062 59.6754 41.3598 60.1529 41.6789C60.6305 41.998 61.1919 42.1682 61.7663 42.1682C62.5365 42.1682 63.2751 41.8623 63.8197 41.3177C64.3643 40.7731 64.6703 40.0345 64.6703 39.2643Z" fill="url(#paint15_linear_1_533)"/>
<path d="M84.2972 39.2643C84.2972 38.6899 84.1269 38.1285 83.8078 37.6509C83.4887 37.1733 83.0352 36.8011 82.5045 36.5813C81.9739 36.3615 81.39 36.304 80.8267 36.4161C80.2634 36.5281 79.7459 36.8047 79.3398 37.2109C78.9337 37.617 78.6571 38.1345 78.5451 38.6978C78.433 39.2611 78.4905 39.8449 78.7103 40.3756C78.9301 40.9062 79.3023 41.3598 79.7799 41.6789C80.2574 41.998 80.8189 42.1682 81.3932 42.1682C82.1634 42.1682 82.9021 41.8623 83.4467 41.3177C83.9913 40.7731 84.2972 40.0345 84.2972 39.2643Z" fill="url(#paint16_linear_1_533)"/>
<path d="M103.911 39.2643C103.911 38.6899 103.741 38.1285 103.422 37.6509C103.103 37.1733 102.649 36.8011 102.119 36.5813C101.588 36.3615 101.004 36.304 100.441 36.4161C99.8776 36.5281 99.3602 36.8047 98.9541 37.2109C98.5479 37.617 98.2714 38.1345 98.1593 38.6978C98.0473 39.2611 98.1048 39.8449 98.3246 40.3756C98.5444 40.9062 98.9166 41.3598 99.3941 41.6789C99.8717 41.998 100.433 42.1682 101.007 42.1682C101.778 42.1682 102.516 41.8623 103.061 41.3177C103.606 40.7731 103.911 40.0345 103.911 39.2643Z" fill="url(#paint17_linear_1_533)"/>
<path d="M123.531 39.2643C123.531 38.6899 123.36 38.1285 123.041 37.6509C122.722 37.1733 122.269 36.8011 121.738 36.5813C121.207 36.3615 120.623 36.304 120.06 36.4161C119.497 36.5281 118.979 36.8047 118.573 37.2109C118.167 37.617 117.891 38.1345 117.778 38.6978C117.666 39.2611 117.724 39.8449 117.944 40.3756C118.164 40.9062 118.536 41.3598 119.013 41.6789C119.491 41.998 120.052 42.1682 120.627 42.1682C121.397 42.1682 122.135 41.8623 122.68 41.3177C123.225 40.7731 123.531 40.0345 123.531 39.2643Z" fill="url(#paint18_linear_1_533)"/>
<path d="M143.154 39.2643C143.154 38.6899 142.983 38.1285 142.664 37.6509C142.345 37.1733 141.892 36.8011 141.361 36.5813C140.83 36.3615 140.246 36.304 139.683 36.4161C139.12 36.5281 138.602 36.8047 138.196 37.2109C137.79 37.617 137.514 38.1345 137.402 38.6978C137.289 39.2611 137.347 39.8449 137.567 40.3756C137.787 40.9062 138.159 41.3598 138.636 41.6789C139.114 41.998 139.675 42.1682 140.25 42.1682C141.02 42.1682 141.759 41.8623 142.303 41.3177C142.848 40.7731 143.154 40.0345 143.154 39.2643Z" fill="url(#paint19_linear_1_533)"/>
<path d="M162.774 39.2643C162.774 38.6899 162.604 38.1285 162.284 37.6509C161.965 37.1733 161.512 36.8011 160.981 36.5813C160.45 36.3615 159.867 36.304 159.303 36.4161C158.74 36.5281 158.223 36.8047 157.816 37.2109C157.41 37.617 157.134 38.1345 157.022 38.6978C156.91 39.2611 156.967 39.8449 157.187 40.3756C157.407 40.9062 157.779 41.3598 158.256 41.6789C158.734 41.998 159.295 42.1682 159.87 42.1682C160.64 42.1682 161.379 41.8623 161.923 41.3177C162.468 40.7731 162.774 40.0345 162.774 39.2643Z" fill="url(#paint20_linear_1_533)"/>
<path d="M5.80799 57.4444C5.8075 56.8701 5.63675 56.309 5.31736 55.8318C4.99797 55.3545 4.54426 54.9827 4.01359 54.7632C3.48291 54.5438 2.8991 54.4867 2.33594 54.599C1.77278 54.7114 1.25556 54.9881 0.84968 55.3943C0.443797 55.8005 0.167472 56.318 0.0556208 56.8813C-0.0562301 57.4445 0.00142016 58.0283 0.221289 58.5588C0.441157 59.0893 0.813366 59.5427 1.29087 59.8616C1.76838 60.1806 2.32974 60.3509 2.90399 60.3509C3.67441 60.3503 4.41302 60.0437 4.95755 59.4987C5.50208 58.9537 5.80799 58.2148 5.80799 57.4444Z" fill="url(#paint21_linear_1_533)"/>
<path d="M25.4301 57.4444C25.4296 56.8701 25.2588 56.309 24.9394 55.8318C24.62 55.3545 24.1663 54.9827 23.6357 54.7632C23.105 54.5438 22.5212 54.4867 21.958 54.599C21.3949 54.7114 20.8776 54.9881 20.4718 55.3943C20.0659 55.8005 19.7895 56.318 19.6777 56.8813C19.5658 57.4445 19.6235 58.0283 19.8434 58.5588C20.0632 59.0893 20.4354 59.5427 20.9129 59.8616C21.3904 60.1806 21.9518 60.3509 22.5261 60.3509C23.2965 60.3503 24.0351 60.0437 24.5797 59.4987C25.1242 58.9537 25.4301 58.2148 25.4301 57.4444Z" fill="url(#paint22_linear_1_533)"/>
<path d="M45.0502 57.4444C45.0497 56.8703 44.879 56.3092 44.5597 55.832C44.2404 55.3548 43.7869 54.983 43.2564 54.7635C42.7258 54.544 42.1421 54.4867 41.579 54.5989C41.0159 54.711 40.4987 54.9875 40.0928 55.3935C39.6868 55.7995 39.4102 56.3167 39.2981 56.8798C39.186 57.4429 39.2433 58.0265 39.4628 58.5571C39.6823 59.0876 40.0541 59.5412 40.5313 59.8605C41.0085 60.1798 41.5696 60.3505 42.1437 60.351C42.9146 60.351 43.6538 60.0447 44.1989 59.4996C44.744 58.9546 45.0502 58.2153 45.0502 57.4444Z" fill="url(#paint23_linear_1_533)"/>
<path d="M64.6703 57.4444C64.6698 56.8701 64.4991 56.309 64.1797 55.8318C63.8603 55.3545 63.4066 54.9827 62.8759 54.7632C62.3452 54.5438 61.7614 54.4867 61.1982 54.599C60.6351 54.7114 60.1179 54.9881 59.712 55.3943C59.3061 55.8005 59.0298 56.318 58.9179 56.8813C58.8061 57.4445 58.8637 58.0283 59.0836 58.5588C59.3035 59.0893 59.6757 59.5427 60.1532 59.8616C60.6307 60.1806 61.192 60.3509 61.7663 60.3509C62.5367 60.3503 63.2754 60.0437 63.8199 59.4987C64.3644 58.9537 64.6703 58.2148 64.6703 57.4444Z" fill="url(#paint24_linear_1_533)"/>
<path d="M84.2972 57.4444C84.2968 56.8701 84.126 56.309 83.8066 55.8318C83.4872 55.3545 83.0335 54.9827 82.5028 54.7632C81.9722 54.5438 81.3884 54.4867 80.8252 54.599C80.262 54.7114 79.7448 54.9881 79.3389 55.3943C78.9331 55.8005 78.6567 56.318 78.5449 56.8813C78.433 57.4445 78.4907 58.0283 78.7105 58.5588C78.9304 59.0893 79.3026 59.5427 79.7801 59.8616C80.2576 60.1806 80.819 60.3509 81.3933 60.3509C82.1637 60.3503 82.9023 60.0437 83.4468 59.4987C83.9914 58.9537 84.2972 58.2148 84.2972 57.4444Z" fill="url(#paint25_linear_1_533)"/>
<path d="M103.911 57.4444C103.911 56.8701 103.74 56.309 103.421 55.8318C103.101 55.3545 102.648 54.9827 102.117 54.7632C101.586 54.5438 101.003 54.4867 100.439 54.599C99.8763 54.7114 99.3591 54.9881 98.9532 55.3943C98.5473 55.8005 98.271 56.318 98.1591 56.8813C98.0473 57.4445 98.1049 58.0283 98.3248 58.5588C98.5447 59.0893 98.9169 59.5427 99.3944 59.8616C99.8719 60.1806 100.433 60.3509 101.008 60.3509C101.778 60.3503 102.517 60.0437 103.061 59.4987C103.606 58.9537 103.911 58.2148 103.911 57.4444Z" fill="url(#paint26_linear_1_533)"/>
<path d="M123.531 57.4444C123.53 56.8701 123.359 56.309 123.04 55.8318C122.721 55.3545 122.267 54.9827 121.736 54.7632C121.206 54.5438 120.622 54.4867 120.059 54.599C119.495 54.7114 118.978 54.9881 118.572 55.3943C118.166 55.8005 117.89 56.318 117.778 56.8813C117.666 57.4445 117.724 58.0283 117.944 58.5588C118.164 59.0893 118.536 59.5427 119.014 59.8616C119.491 60.1806 120.052 60.3509 120.627 60.3509C121.397 60.3503 122.136 60.0437 122.68 59.4987C123.225 58.9537 123.531 58.2148 123.531 57.4444Z" fill="url(#paint27_linear_1_533)"/>
<path d="M143.154 57.4444C143.153 56.8701 142.982 56.309 142.663 55.8318C142.344 55.3545 141.89 54.9827 141.359 54.7632C140.829 54.5438 140.245 54.4867 139.682 54.599C139.118 54.7114 138.601 54.9881 138.195 55.3943C137.79 55.8005 137.513 56.318 137.401 56.8813C137.289 57.4445 137.347 58.0283 137.567 58.5588C137.787 59.0893 138.159 59.5427 138.637 59.8616C139.114 60.1806 139.675 60.3509 140.25 60.3509C141.02 60.3503 141.759 60.0437 142.303 59.4987C142.848 58.9537 143.154 58.2148 143.154 57.4444Z" fill="url(#paint28_linear_1_533)"/>
<path d="M162.774 57.4444C162.773 56.8701 162.603 56.309 162.283 55.8318C161.964 55.3545 161.51 54.9827 160.979 54.7632C160.449 54.5438 159.865 54.4867 159.302 54.599C158.739 54.7114 158.221 54.9881 157.816 55.3943C157.41 55.8005 157.133 56.318 157.021 56.8813C156.91 57.4445 156.967 58.0283 157.187 58.5588C157.407 59.0893 157.779 59.5427 158.257 59.8616C158.734 60.1806 159.296 60.3509 159.87 60.3509C160.64 60.3503 161.379 60.0437 161.923 59.4987C162.468 58.9537 162.774 58.2148 162.774 57.4444Z" fill="url(#paint29_linear_1_533)"/>
<path d="M5.80798 75.6269C5.80798 75.0526 5.63765 74.4911 5.31856 74.0136C4.99946 73.536 4.54591 73.1638 4.01528 72.944C3.48464 72.7242 2.90076 72.6667 2.33744 72.7787C1.77412 72.8908 1.25667 73.1673 0.850539 73.5735C0.444409 73.9796 0.167852 74.497 0.0558008 75.0604C-0.0562503 75.6237 0.00125782 76.2076 0.221054 76.7382C0.44085 77.2689 0.813039 77.7224 1.2906 78.0415C1.76816 78.3606 2.32963 78.5309 2.90398 78.5309C3.67417 78.5309 4.41279 78.225 4.95739 77.6804C5.502 77.1357 5.80798 76.3971 5.80798 75.6269Z" fill="url(#paint30_linear_1_533)"/>
<path d="M22.5231 78.5309C24.127 78.5309 25.4271 77.2307 25.4271 75.6269C25.4271 74.0231 24.127 72.7229 22.5231 72.7229C20.9193 72.7229 19.6191 74.0231 19.6191 75.6269C19.6191 77.2307 20.9193 78.5309 22.5231 78.5309Z" fill="url(#paint31_linear_1_533)"/>
<path d="M42.1432 78.5309C43.7471 78.5309 45.0472 77.2307 45.0472 75.6269C45.0472 74.0231 43.7471 72.7229 42.1432 72.7229C40.5394 72.7229 39.2393 74.0231 39.2393 75.6269C39.2393 77.2307 40.5394 78.5309 42.1432 78.5309Z" fill="url(#paint32_linear_1_533)"/>
<path d="M61.7663 78.5309C63.3701 78.5309 64.6703 77.2307 64.6703 75.6269C64.6703 74.0231 63.3701 72.7229 61.7663 72.7229C60.1625 72.7229 58.8623 74.0231 58.8623 75.6269C58.8623 77.2307 60.1625 78.5309 61.7663 78.5309Z" fill="url(#paint33_linear_1_533)"/>
<path d="M84.2972 75.6269C84.2972 75.0526 84.1269 74.4911 83.8078 74.0136C83.4887 73.536 83.0352 73.1638 82.5045 72.944C81.9739 72.7242 81.39 72.6667 80.8267 72.7787C80.2634 72.8908 79.7459 73.1673 79.3398 73.5735C78.9337 73.9796 78.6571 74.497 78.5451 75.0604C78.433 75.6237 78.4905 76.2076 78.7103 76.7382C78.9301 77.2689 79.3023 77.7224 79.7799 78.0415C80.2574 78.3606 80.8189 78.5309 81.3932 78.5309C82.1634 78.5309 82.9021 78.225 83.4467 77.6804C83.9913 77.1357 84.2972 76.3971 84.2972 75.6269Z" fill="url(#paint34_linear_1_533)"/>
<path d="M101.008 78.5309C102.611 78.5309 103.911 77.2307 103.911 75.6269C103.911 74.0231 102.611 72.7229 101.008 72.7229C99.4037 72.7229 98.1035 74.0231 98.1035 75.6269C98.1035 77.2307 99.4037 78.5309 101.008 78.5309Z" fill="url(#paint35_linear_1_533)"/>
<path d="M120.627 78.5309C122.23 78.5309 123.531 77.2307 123.531 75.6269C123.531 74.0231 122.23 72.7229 120.627 72.7229C119.023 72.7229 117.723 74.0231 117.723 75.6269C117.723 77.2307 119.023 78.5309 120.627 78.5309Z" fill="url(#paint36_linear_1_533)"/>
<path d="M140.25 78.5309C141.854 78.5309 143.154 77.2307 143.154 75.6269C143.154 74.0231 141.854 72.7229 140.25 72.7229C138.646 72.7229 137.346 74.0231 137.346 75.6269C137.346 77.2307 138.646 78.5309 140.25 78.5309Z" fill="url(#paint37_linear_1_533)"/>
<path d="M162.774 75.6269C162.774 75.0526 162.604 74.4911 162.284 74.0136C161.965 73.536 161.512 73.1638 160.981 72.944C160.45 72.7242 159.867 72.6667 159.303 72.7787C158.74 72.8908 158.223 73.1673 157.816 73.5735C157.41 73.9796 157.134 74.497 157.022 75.0604C156.91 75.6237 156.967 76.2076 157.187 76.7382C157.407 77.2689 157.779 77.7224 158.256 78.0415C158.734 78.3606 159.295 78.5309 159.87 78.5309C160.64 78.5309 161.379 78.225 161.923 77.6804C162.468 77.1357 162.774 76.3971 162.774 75.6269Z" fill="url(#paint38_linear_1_533)"/>
<path d="M5.80798 93.8078C5.80798 93.2335 5.63765 92.672 5.31856 92.1944C4.99946 91.7169 4.54591 91.3447 4.01528 91.1249C3.48464 90.9051 2.90076 90.8476 2.33744 90.9596C1.77412 91.0717 1.25667 91.3483 0.850539 91.7544C0.444409 92.1606 0.167852 92.678 0.0558008 93.2413C-0.0562503 93.8046 0.00125782 94.3885 0.221054 94.9191C0.44085 95.4498 0.813039 95.9033 1.2906 96.2224C1.76816 96.5415 2.32963 96.7118 2.90398 96.7118C3.28534 96.7118 3.66295 96.6367 4.01528 96.4908C4.3676 96.3449 4.68773 96.1309 4.95739 95.8612C5.22705 95.5916 5.44098 95.2714 5.58691 94.9191C5.73285 94.5668 5.80798 94.1892 5.80798 93.8078Z" fill="url(#paint39_linear_1_533)"/>
<path d="M22.5231 96.7118C24.127 96.7118 25.4271 95.4116 25.4271 93.8078C25.4271 92.204 24.127 90.9038 22.5231 90.9038C20.9193 90.9038 19.6191 92.204 19.6191 93.8078C19.6191 95.4116 20.9193 96.7118 22.5231 96.7118Z" fill="url(#paint40_linear_1_533)"/>
<path d="M42.1432 96.7118C43.7471 96.7118 45.0472 95.4116 45.0472 93.8078C45.0472 92.204 43.7471 90.9038 42.1432 90.9038C40.5394 90.9038 39.2393 92.204 39.2393 93.8078C39.2393 95.4116 40.5394 96.7118 42.1432 96.7118Z" fill="url(#paint41_linear_1_533)"/>
<path d="M61.7663 96.7118C63.3701 96.7118 64.6703 95.4116 64.6703 93.8078C64.6703 92.204 63.3701 90.9038 61.7663 90.9038C60.1625 90.9038 58.8623 92.204 58.8623 93.8078C58.8623 95.4116 60.1625 96.7118 61.7663 96.7118Z" fill="url(#paint42_linear_1_533)"/>
<path d="M84.2972 93.8078C84.2972 93.2335 84.1269 92.672 83.8078 92.1944C83.4887 91.7169 83.0352 91.3447 82.5045 91.1249C81.9739 90.9051 81.39 90.8476 80.8267 90.9596C80.2634 91.0717 79.7459 91.3483 79.3398 91.7544C78.9337 92.1606 78.6571 92.678 78.5451 93.2413C78.433 93.8046 78.4905 94.3885 78.7103 94.9191C78.9301 95.4498 79.3023 95.9033 79.7799 96.2224C80.2574 96.5415 80.8189 96.7118 81.3932 96.7118C81.7746 96.7118 82.1522 96.6367 82.5045 96.4908C82.8569 96.3449 83.177 96.1309 83.4467 95.8612C83.7163 95.5916 83.9302 95.2714 84.0762 94.9191C84.2221 94.5668 84.2972 94.1892 84.2972 93.8078Z" fill="url(#paint43_linear_1_533)"/>
<path d="M101.008 96.7118C102.611 96.7118 103.911 95.4116 103.911 93.8078C103.911 92.204 102.611 90.9038 101.008 90.9038C99.4037 90.9038 98.1035 92.204 98.1035 93.8078C98.1035 95.4116 99.4037 96.7118 101.008 96.7118Z" fill="url(#paint44_linear_1_533)"/>
<path d="M120.627 96.7118C122.23 96.7118 123.531 95.4116 123.531 93.8078C123.531 92.204 122.23 90.9038 120.627 90.9038C119.023 90.9038 117.723 92.204 117.723 93.8078C117.723 95.4116 119.023 96.7118 120.627 96.7118Z" fill="url(#paint45_linear_1_533)"/>
<path d="M140.25 96.7118C141.854 96.7118 143.154 95.4116 143.154 93.8078C143.154 92.204 141.854 90.9038 140.25 90.9038C138.646 90.9038 137.346 92.204 137.346 93.8078C137.346 95.4116 138.646 96.7118 140.25 96.7118Z" fill="url(#paint46_linear_1_533)"/>
<path d="M162.774 93.8078C162.774 93.2335 162.604 92.672 162.284 92.1944C161.965 91.7169 161.512 91.3447 160.981 91.1249C160.45 90.9051 159.867 90.8476 159.303 90.9596C158.74 91.0717 158.223 91.3483 157.816 91.7544C157.41 92.1606 157.134 92.678 157.022 93.2413C156.91 93.8046 156.967 94.3885 157.187 94.9191C157.407 95.4498 157.779 95.9033 158.256 96.2224C158.734 96.5415 159.295 96.7118 159.87 96.7118C160.251 96.7118 160.629 96.6367 160.981 96.4908C161.333 96.3449 161.654 96.1309 161.923 95.8612C162.193 95.5916 162.407 95.2714 162.553 94.9191C162.699 94.5668 162.774 94.1892 162.774 93.8078Z" fill="url(#paint47_linear_1_533)"/>
<path d="M5.80798 111.987C5.80798 111.413 5.63765 110.852 5.31856 110.374C4.99946 109.897 4.54591 109.524 4.01528 109.305C3.48464 109.085 2.90076 109.027 2.33744 109.139C1.77412 109.251 1.25667 109.528 0.850539 109.934C0.444409 110.34 0.167852 110.858 0.0558008 111.421C-0.0562503 111.984 0.00125782 112.568 0.221054 113.099C0.44085 113.629 0.813039 114.083 1.2906 114.402C1.76816 114.721 2.32963 114.891 2.90398 114.891C3.67417 114.891 4.41279 114.586 4.95739 114.041C5.502 113.496 5.80798 112.758 5.80798 111.987Z" fill="url(#paint48_linear_1_533)"/>
<path d="M22.5231 114.891C24.127 114.891 25.4271 113.591 25.4271 111.987C25.4271 110.384 24.127 109.084 22.5231 109.084C20.9193 109.084 19.6191 110.384 19.6191 111.987C19.6191 113.591 20.9193 114.891 22.5231 114.891Z" fill="url(#paint49_linear_1_533)"/>
<path d="M42.1432 114.891C43.7471 114.891 45.0472 113.591 45.0472 111.987C45.0472 110.384 43.7471 109.084 42.1432 109.084C40.5394 109.084 39.2393 110.384 39.2393 111.987C39.2393 113.591 40.5394 114.891 42.1432 114.891Z" fill="url(#paint50_linear_1_533)"/>
<path d="M61.7663 114.891C63.3701 114.891 64.6703 113.591 64.6703 111.987C64.6703 110.384 63.3701 109.084 61.7663 109.084C60.1625 109.084 58.8623 110.384 58.8623 111.987C58.8623 113.591 60.1625 114.891 61.7663 114.891Z" fill="url(#paint51_linear_1_533)"/>
<path d="M84.2972 111.987C84.2972 111.413 84.1269 110.852 83.8078 110.374C83.4887 109.897 83.0352 109.524 82.5045 109.305C81.9739 109.085 81.39 109.027 80.8267 109.139C80.2634 109.251 79.7459 109.528 79.3398 109.934C78.9337 110.34 78.6571 110.858 78.5451 111.421C78.433 111.984 78.4905 112.568 78.7103 113.099C78.9301 113.629 79.3023 114.083 79.7799 114.402C80.2574 114.721 80.8189 114.891 81.3932 114.891C82.1634 114.891 82.9021 114.586 83.4467 114.041C83.9913 113.496 84.2972 112.758 84.2972 111.987Z" fill="url(#paint52_linear_1_533)"/>
<path d="M101.008 114.891C102.611 114.891 103.911 113.591 103.911 111.987C103.911 110.384 102.611 109.084 101.008 109.084C99.4037 109.084 98.1035 110.384 98.1035 111.987C98.1035 113.591 99.4037 114.891 101.008 114.891Z" fill="url(#paint53_linear_1_533)"/>
<path d="M120.627 114.891C122.23 114.891 123.531 113.591 123.531 111.987C123.531 110.384 122.23 109.084 120.627 109.084C119.023 109.084 117.723 110.384 117.723 111.987C117.723 113.591 119.023 114.891 120.627 114.891Z" fill="url(#paint54_linear_1_533)"/>
<path d="M140.25 114.891C141.854 114.891 143.154 113.591 143.154 111.987C143.154 110.384 141.854 109.084 140.25 109.084C138.646 109.084 137.346 110.384 137.346 111.987C137.346 113.591 138.646 114.891 140.25 114.891Z" fill="url(#paint55_linear_1_533)"/>
<path d="M162.774 111.987C162.774 111.413 162.604 110.852 162.284 110.374C161.965 109.897 161.512 109.524 160.981 109.305C160.45 109.085 159.867 109.027 159.303 109.139C158.74 109.251 158.223 109.528 157.816 109.934C157.41 110.34 157.134 110.858 157.022 111.421C156.91 111.984 156.967 112.568 157.187 113.099C157.407 113.629 157.779 114.083 158.256 114.402C158.734 114.721 159.295 114.891 159.87 114.891C160.64 114.891 161.379 114.586 161.923 114.041C162.468 113.496 162.774 112.758 162.774 111.987Z" fill="url(#paint56_linear_1_533)"/>
<path d="M22.5231 133.072C24.127 133.072 25.4271 131.772 25.4271 130.168C25.4271 128.564 24.127 127.264 22.5231 127.264C20.9193 127.264 19.6191 128.564 19.6191 130.168C19.6191 131.772 20.9193 133.072 22.5231 133.072Z" fill="url(#paint57_linear_1_533)"/>
<path d="M42.1432 133.072C43.7471 133.072 45.0472 131.772 45.0472 130.168C45.0472 128.564 43.7471 127.264 42.1432 127.264C40.5394 127.264 39.2393 128.564 39.2393 130.168C39.2393 131.772 40.5394 133.072 42.1432 133.072Z" fill="url(#paint58_linear_1_533)"/>
<path d="M61.7663 133.072C63.3701 133.072 64.6703 131.772 64.6703 130.168C64.6703 128.564 63.3701 127.264 61.7663 127.264C60.1625 127.264 58.8623 128.564 58.8623 130.168C58.8623 131.772 60.1625 133.072 61.7663 133.072Z" fill="url(#paint59_linear_1_533)"/>
<path d="M84.2972 130.168C84.2972 129.594 84.1269 129.032 83.8078 128.555C83.4887 128.077 83.0352 127.705 82.5045 127.485C81.9739 127.265 81.39 127.208 80.8267 127.32C80.2634 127.432 79.7459 127.709 79.3398 128.115C78.9337 128.521 78.6571 129.038 78.5451 129.602C78.433 130.165 78.4905 130.749 78.7103 131.279C78.9301 131.81 79.3023 132.264 79.7799 132.583C80.2574 132.902 80.8189 133.072 81.3932 133.072C82.1634 133.072 82.9021 132.766 83.4467 132.222C83.9913 131.677 84.2972 130.938 84.2972 130.168Z" fill="url(#paint60_linear_1_533)"/>
<path d="M101.008 133.072C102.611 133.072 103.911 131.772 103.911 130.168C103.911 128.564 102.611 127.264 101.008 127.264C99.4037 127.264 98.1035 128.564 98.1035 130.168C98.1035 131.772 99.4037 133.072 101.008 133.072Z" fill="url(#paint61_linear_1_533)"/>
<path d="M120.627 133.072C122.23 133.072 123.531 131.772 123.531 130.168C123.531 128.564 122.23 127.264 120.627 127.264C119.023 127.264 117.723 128.564 117.723 130.168C117.723 131.772 119.023 133.072 120.627 133.072Z" fill="url(#paint62_linear_1_533)"/>
<path d="M140.25 133.072C141.854 133.072 143.154 131.772 143.154 130.168C143.154 128.564 141.854 127.264 140.25 127.264C138.646 127.264 137.346 128.564 137.346 130.168C137.346 131.772 138.646 133.072 140.25 133.072Z" fill="url(#paint63_linear_1_533)"/>
<path d="M42.1432 151.252C43.7471 151.252 45.0472 149.952 45.0472 148.348C45.0472 146.744 43.7471 145.444 42.1432 145.444C40.5394 145.444 39.2393 146.744 39.2393 148.348C39.2393 149.952 40.5394 151.252 42.1432 151.252Z" fill="url(#paint64_linear_1_533)"/>
<path d="M61.7663 151.252C63.3701 151.252 64.6703 149.952 64.6703 148.348C64.6703 146.744 63.3701 145.444 61.7663 145.444C60.1625 145.444 58.8623 146.744 58.8623 148.348C58.8623 149.952 60.1625 151.252 61.7663 151.252Z" fill="url(#paint65_linear_1_533)"/>
<path d="M84.2972 148.351C84.2972 147.776 84.1269 147.215 83.8078 146.737C83.4887 146.26 83.0352 145.888 82.5045 145.668C81.9739 145.448 81.39 145.391 80.8267 145.503C80.2634 145.615 79.7459 145.891 79.3398 146.297C78.9337 146.704 78.6571 147.221 78.5451 147.784C78.433 148.348 78.4905 148.931 78.7103 149.462C78.9301 149.993 79.3023 150.446 79.7799 150.765C80.2574 151.084 80.8189 151.255 81.3932 151.255C82.1634 151.255 82.9021 150.949 83.4467 150.404C83.9913 149.86 84.2972 149.121 84.2972 148.351Z" fill="url(#paint66_linear_1_533)"/>
<path d="M101.008 151.252C102.611 151.252 103.911 149.952 103.911 148.348C103.911 146.744 102.611 145.444 101.008 145.444C99.4037 145.444 98.1035 146.744 98.1035 148.348C98.1035 149.952 99.4037 151.252 101.008 151.252Z" fill="url(#paint67_linear_1_533)"/>
<path d="M120.627 151.252C122.23 151.252 123.531 149.952 123.531 148.348C123.531 146.744 122.23 145.444 120.627 145.444C119.023 145.444 117.723 146.744 117.723 148.348C117.723 149.952 119.023 151.252 120.627 151.252Z" fill="url(#paint68_linear_1_533)"/>
</g>
<defs>
<linearGradient id="paint0_linear_1_533" x1="44.8074" y1="-3.04836e-05" x2="44.1688" y2="6.30685" gradientUnits="userSpaceOnUse">
<stop stop-color="#61DCDF"/>
<stop offset="1" stop-color="#886CFF"/>
</linearGradient>
<linearGradient id="paint1_linear_1_533" x1="64.4276" y1="-3.04836e-05" x2="63.7889" y2="6.30681" gradientUnits="userSpaceOnUse">
<stop stop-color="#61DCDF"/>
<stop offset="1" stop-color="#886CFF"/>
</linearGradient>
<linearGradient id="paint2_linear_1_533" x1="84.0545" y1="-3.04836e-05" x2="83.4159" y2="6.30681" gradientUnits="userSpaceOnUse">
<stop stop-color="#61DCDF"/>
<stop offset="1" stop-color="#886CFF"/>
</linearGradient>
<linearGradient id="paint3_linear_1_533" x1="103.669" y1="-3.04836e-05" x2="103.03" y2="6.30681" gradientUnits="userSpaceOnUse">
<stop stop-color="#61DCDF"/>
<stop offset="1" stop-color="#886CFF"/>
</linearGradient>
<linearGradient id="paint4_linear_1_533" x1="123.288" y1="-3.04836e-05" x2="122.649" y2="6.30681" gradientUnits="userSpaceOnUse">
<stop stop-color="#61DCDF"/>
<stop offset="1" stop-color="#886CFF"/>
</linearGradient>
<linearGradient id="paint5_linear_1_533" x1="25.1873" y1="18.1803" x2="24.5487" y2="24.4871" gradientUnits="userSpaceOnUse">
<stop stop-color="#61DCDF"/>
<stop offset="1" stop-color="#886CFF"/>
</linearGradient>
<linearGradient id="paint6_linear_1_533" x1="44.8074" y1="18.1803" x2="44.1688" y2="24.4871" gradientUnits="userSpaceOnUse">
<stop stop-color="#61DCDF"/>
<stop offset="1" stop-color="#886CFF"/>
</linearGradient>
<linearGradient id="paint7_linear_1_533" x1="64.4276" y1="18.1803" x2="63.7889" y2="24.4871" gradientUnits="userSpaceOnUse">
<stop stop-color="#61DCDF"/>
<stop offset="1" stop-color="#886CFF"/>
</linearGradient>
<linearGradient id="paint8_linear_1_533" x1="84.0545" y1="18.1803" x2="83.4159" y2="24.4871" gradientUnits="userSpaceOnUse">
<stop stop-color="#61DCDF"/>
<stop offset="1" stop-color="#886CFF"/>
</linearGradient>
<linearGradient id="paint9_linear_1_533" x1="103.669" y1="18.1803" x2="103.03" y2="24.4871" gradientUnits="userSpaceOnUse">
<stop stop-color="#61DCDF"/>
<stop offset="1" stop-color="#886CFF"/>
</linearGradient>
<linearGradient id="paint10_linear_1_533" x1="123.288" y1="18.1803" x2="122.649" y2="24.4871" gradientUnits="userSpaceOnUse">
<stop stop-color="#61DCDF"/>
<stop offset="1" stop-color="#886CFF"/>
</linearGradient>
<linearGradient id="paint11_linear_1_533" x1="142.911" y1="18.1803" x2="142.272" y2="24.4871" gradientUnits="userSpaceOnUse">
<stop stop-color="#61DCDF"/>
<stop offset="1" stop-color="#886CFF"/>
</linearGradient>
<linearGradient id="paint12_linear_1_533" x1="5.56526" y1="36.3603" x2="4.92664" y2="42.6671" gradientUnits="userSpaceOnUse">
<stop stop-color="#61DCDF"/>
<stop offset="1" stop-color="#886CFF"/>
</linearGradient>
<linearGradient id="paint13_linear_1_533" x1="25.1873" y1="36.3603" x2="24.5487" y2="42.6671" gradientUnits="userSpaceOnUse">
<stop stop-color="#61DCDF"/>
<stop offset="1" stop-color="#886CFF"/>
</linearGradient>
<linearGradient id="paint14_linear_1_533" x1="44.8074" y1="36.3603" x2="44.1688" y2="42.6671" gradientUnits="userSpaceOnUse">
<stop stop-color="#61DCDF"/>
<stop offset="1" stop-color="#886CFF"/>
</linearGradient>
<linearGradient id="paint15_linear_1_533" x1="64.4276" y1="36.3603" x2="63.7889" y2="42.6671" gradientUnits="userSpaceOnUse">
<stop stop-color="#61DCDF"/>
<stop offset="1" stop-color="#886CFF"/>
</linearGradient>
<linearGradient id="paint16_linear_1_533" x1="84.0545" y1="36.3603" x2="83.4159" y2="42.6671" gradientUnits="userSpaceOnUse">
<stop stop-color="#61DCDF"/>
<stop offset="1" stop-color="#886CFF"/>
</linearGradient>
<linearGradient id="paint17_linear_1_533" x1="103.669" y1="36.3603" x2="103.03" y2="42.6671" gradientUnits="userSpaceOnUse">
<stop stop-color="#61DCDF"/>
<stop offset="1" stop-color="#886CFF"/>
</linearGradient>
<linearGradient id="paint18_linear_1_533" x1="123.288" y1="36.3603" x2="122.649" y2="42.6671" gradientUnits="userSpaceOnUse">
<stop stop-color="#61DCDF"/>
<stop offset="1" stop-color="#886CFF"/>
</linearGradient>
<linearGradient id="paint19_linear_1_533" x1="142.911" y1="36.3603" x2="142.272" y2="42.6671" gradientUnits="userSpaceOnUse">
<stop stop-color="#61DCDF"/>
<stop offset="1" stop-color="#886CFF"/>
</linearGradient>
<linearGradient id="paint20_linear_1_533" x1="162.531" y1="36.3603" x2="161.892" y2="42.6671" gradientUnits="userSpaceOnUse">
<stop stop-color="#61DCDF"/>
<stop offset="1" stop-color="#886CFF"/>
</linearGradient>
<linearGradient id="paint21_linear_1_533" x1="5.56527" y1="54.5429" x2="4.92665" y2="60.8498" gradientUnits="userSpaceOnUse">
<stop stop-color="#61DCDF"/>
<stop offset="1" stop-color="#886CFF"/>
</linearGradient>
<linearGradient id="paint22_linear_1_533" x1="25.1873" y1="54.5429" x2="24.5487" y2="60.8498" gradientUnits="userSpaceOnUse">
<stop stop-color="#61DCDF"/>
<stop offset="1" stop-color="#886CFF"/>
</linearGradient>
<linearGradient id="paint23_linear_1_533" x1="44.8074" y1="54.5429" x2="44.1688" y2="60.8498" gradientUnits="userSpaceOnUse">
<stop stop-color="#61DCDF"/>
<stop offset="1" stop-color="#886CFF"/>
</linearGradient>
<linearGradient id="paint24_linear_1_533" x1="64.4276" y1="54.5429" x2="63.789" y2="60.8498" gradientUnits="userSpaceOnUse">
<stop stop-color="#61DCDF"/>
<stop offset="1" stop-color="#886CFF"/>
</linearGradient>
<linearGradient id="paint25_linear_1_533" x1="84.0545" y1="54.5429" x2="83.4159" y2="60.8498" gradientUnits="userSpaceOnUse">
<stop stop-color="#61DCDF"/>
<stop offset="1" stop-color="#886CFF"/>
</linearGradient>
<linearGradient id="paint26_linear_1_533" x1="103.669" y1="54.5429" x2="103.03" y2="60.8498" gradientUnits="userSpaceOnUse">
<stop stop-color="#61DCDF"/>
<stop offset="1" stop-color="#886CFF"/>
</linearGradient>
<linearGradient id="paint27_linear_1_533" x1="123.288" y1="54.5429" x2="122.649" y2="60.8498" gradientUnits="userSpaceOnUse">
<stop stop-color="#61DCDF"/>
<stop offset="1" stop-color="#886CFF"/>
</linearGradient>
<linearGradient id="paint28_linear_1_533" x1="142.911" y1="54.5429" x2="142.272" y2="60.8498" gradientUnits="userSpaceOnUse">
<stop stop-color="#61DCDF"/>
<stop offset="1" stop-color="#886CFF"/>
</linearGradient>
<linearGradient id="paint29_linear_1_533" x1="162.531" y1="54.5429" x2="161.892" y2="60.8498" gradientUnits="userSpaceOnUse">
<stop stop-color="#61DCDF"/>
<stop offset="1" stop-color="#886CFF"/>
</linearGradient>
<linearGradient id="paint30_linear_1_533" x1="5.56526" y1="72.7229" x2="4.92664" y2="79.0298" gradientUnits="userSpaceOnUse">
<stop stop-color="#61DCDF"/>
<stop offset="1" stop-color="#886CFF"/>
</linearGradient>
<linearGradient id="paint31_linear_1_533" x1="25.1844" y1="72.7229" x2="24.5458" y2="79.0298" gradientUnits="userSpaceOnUse">
<stop stop-color="#61DCDF"/>
<stop offset="1" stop-color="#886CFF"/>
</linearGradient>
<linearGradient id="paint32_linear_1_533" x1="44.8045" y1="72.7229" x2="44.1659" y2="79.0298" gradientUnits="userSpaceOnUse">
<stop stop-color="#61DCDF"/>
<stop offset="1" stop-color="#886CFF"/>
</linearGradient>
<linearGradient id="paint33_linear_1_533" x1="64.4276" y1="72.7229" x2="63.7889" y2="79.0298" gradientUnits="userSpaceOnUse">
<stop stop-color="#61DCDF"/>
<stop offset="1" stop-color="#886CFF"/>
</linearGradient>
<linearGradient id="paint34_linear_1_533" x1="84.0545" y1="72.7229" x2="83.4159" y2="79.0298" gradientUnits="userSpaceOnUse">
<stop stop-color="#61DCDF"/>
<stop offset="1" stop-color="#886CFF"/>
</linearGradient>
<linearGradient id="paint35_linear_1_533" x1="103.669" y1="72.7229" x2="103.03" y2="79.0298" gradientUnits="userSpaceOnUse">
<stop stop-color="#61DCDF"/>
<stop offset="1" stop-color="#886CFF"/>
</linearGradient>
<linearGradient id="paint36_linear_1_533" x1="123.288" y1="72.7229" x2="122.649" y2="79.0298" gradientUnits="userSpaceOnUse">
<stop stop-color="#61DCDF"/>
<stop offset="1" stop-color="#886CFF"/>
</linearGradient>
<linearGradient id="paint37_linear_1_533" x1="142.911" y1="72.7229" x2="142.272" y2="79.0298" gradientUnits="userSpaceOnUse">
<stop stop-color="#61DCDF"/>
<stop offset="1" stop-color="#886CFF"/>
</linearGradient>
<linearGradient id="paint38_linear_1_533" x1="162.531" y1="72.7229" x2="161.892" y2="79.0298" gradientUnits="userSpaceOnUse">
<stop stop-color="#61DCDF"/>
<stop offset="1" stop-color="#886CFF"/>
</linearGradient>
<linearGradient id="paint39_linear_1_533" x1="5.56526" y1="90.9038" x2="4.92664" y2="97.2107" gradientUnits="userSpaceOnUse">
<stop stop-color="#61DCDF"/>
<stop offset="1" stop-color="#886CFF"/>
</linearGradient>
<linearGradient id="paint40_linear_1_533" x1="25.1844" y1="90.9038" x2="24.5458" y2="97.2106" gradientUnits="userSpaceOnUse">
<stop stop-color="#61DCDF"/>
<stop offset="1" stop-color="#886CFF"/>
</linearGradient>
<linearGradient id="paint41_linear_1_533" x1="44.8045" y1="90.9038" x2="44.1659" y2="97.2106" gradientUnits="userSpaceOnUse">
<stop stop-color="#61DCDF"/>
<stop offset="1" stop-color="#886CFF"/>
</linearGradient>
<linearGradient id="paint42_linear_1_533" x1="64.4276" y1="90.9038" x2="63.7889" y2="97.2106" gradientUnits="userSpaceOnUse">
<stop stop-color="#61DCDF"/>
<stop offset="1" stop-color="#886CFF"/>
</linearGradient>
<linearGradient id="paint43_linear_1_533" x1="84.0545" y1="90.9038" x2="83.4159" y2="97.2107" gradientUnits="userSpaceOnUse">
<stop stop-color="#61DCDF"/>
<stop offset="1" stop-color="#886CFF"/>
</linearGradient>
<linearGradient id="paint44_linear_1_533" x1="103.669" y1="90.9038" x2="103.03" y2="97.2106" gradientUnits="userSpaceOnUse">
<stop stop-color="#61DCDF"/>
<stop offset="1" stop-color="#886CFF"/>
</linearGradient>
<linearGradient id="paint45_linear_1_533" x1="123.288" y1="90.9038" x2="122.649" y2="97.2106" gradientUnits="userSpaceOnUse">
<stop stop-color="#61DCDF"/>
<stop offset="1" stop-color="#886CFF"/>
</linearGradient>
<linearGradient id="paint46_linear_1_533" x1="142.911" y1="90.9038" x2="142.272" y2="97.2106" gradientUnits="userSpaceOnUse">
<stop stop-color="#61DCDF"/>
<stop offset="1" stop-color="#886CFF"/>
</linearGradient>
<linearGradient id="paint47_linear_1_533" x1="162.531" y1="90.9038" x2="161.892" y2="97.2107" gradientUnits="userSpaceOnUse">
<stop stop-color="#61DCDF"/>
<stop offset="1" stop-color="#886CFF"/>
</linearGradient>
<linearGradient id="paint48_linear_1_533" x1="5.56526" y1="109.084" x2="4.92664" y2="115.39" gradientUnits="userSpaceOnUse">
<stop stop-color="#61DCDF"/>
<stop offset="1" stop-color="#886CFF"/>
</linearGradient>
<linearGradient id="paint49_linear_1_533" x1="25.1844" y1="109.084" x2="24.5458" y2="115.39" gradientUnits="userSpaceOnUse">
<stop stop-color="#61DCDF"/>
<stop offset="1" stop-color="#886CFF"/>
</linearGradient>
<linearGradient id="paint50_linear_1_533" x1="44.8045" y1="109.084" x2="44.1659" y2="115.39" gradientUnits="userSpaceOnUse">
<stop stop-color="#61DCDF"/>
<stop offset="1" stop-color="#886CFF"/>
</linearGradient>
<linearGradient id="paint51_linear_1_533" x1="64.4276" y1="109.084" x2="63.7889" y2="115.39" gradientUnits="userSpaceOnUse">
<stop stop-color="#61DCDF"/>
<stop offset="1" stop-color="#886CFF"/>
</linearGradient>
<linearGradient id="paint52_linear_1_533" x1="84.0545" y1="109.084" x2="83.4159" y2="115.39" gradientUnits="userSpaceOnUse">
<stop stop-color="#61DCDF"/>
<stop offset="1" stop-color="#886CFF"/>
</linearGradient>
<linearGradient id="paint53_linear_1_533" x1="103.669" y1="109.084" x2="103.03" y2="115.39" gradientUnits="userSpaceOnUse">
<stop stop-color="#61DCDF"/>
<stop offset="1" stop-color="#886CFF"/>
</linearGradient>
<linearGradient id="paint54_linear_1_533" x1="123.288" y1="109.084" x2="122.649" y2="115.39" gradientUnits="userSpaceOnUse">
<stop stop-color="#61DCDF"/>
<stop offset="1" stop-color="#886CFF"/>
</linearGradient>
<linearGradient id="paint55_linear_1_533" x1="142.911" y1="109.084" x2="142.272" y2="115.39" gradientUnits="userSpaceOnUse">
<stop stop-color="#61DCDF"/>
<stop offset="1" stop-color="#886CFF"/>
</linearGradient>
<linearGradient id="paint56_linear_1_533" x1="162.531" y1="109.084" x2="161.892" y2="115.39" gradientUnits="userSpaceOnUse">
<stop stop-color="#61DCDF"/>
<stop offset="1" stop-color="#886CFF"/>
</linearGradient>
<linearGradient id="paint57_linear_1_533" x1="25.1844" y1="127.264" x2="24.5458" y2="133.571" gradientUnits="userSpaceOnUse">
<stop stop-color="#61DCDF"/>
<stop offset="1" stop-color="#886CFF"/>
</linearGradient>
<linearGradient id="paint58_linear_1_533" x1="44.8045" y1="127.264" x2="44.1659" y2="133.571" gradientUnits="userSpaceOnUse">
<stop stop-color="#61DCDF"/>
<stop offset="1" stop-color="#886CFF"/>
</linearGradient>
<linearGradient id="paint59_linear_1_533" x1="64.4276" y1="127.264" x2="63.7889" y2="133.571" gradientUnits="userSpaceOnUse">
<stop stop-color="#61DCDF"/>
<stop offset="1" stop-color="#886CFF"/>
</linearGradient>
<linearGradient id="paint60_linear_1_533" x1="84.0545" y1="127.264" x2="83.4159" y2="133.571" gradientUnits="userSpaceOnUse">
<stop stop-color="#61DCDF"/>
<stop offset="1" stop-color="#886CFF"/>
</linearGradient>
<linearGradient id="paint61_linear_1_533" x1="103.669" y1="127.264" x2="103.03" y2="133.571" gradientUnits="userSpaceOnUse">
<stop stop-color="#61DCDF"/>
<stop offset="1" stop-color="#886CFF"/>
</linearGradient>
<linearGradient id="paint62_linear_1_533" x1="123.288" y1="127.264" x2="122.649" y2="133.571" gradientUnits="userSpaceOnUse">
<stop stop-color="#61DCDF"/>
<stop offset="1" stop-color="#886CFF"/>
</linearGradient>
<linearGradient id="paint63_linear_1_533" x1="142.911" y1="127.264" x2="142.272" y2="133.571" gradientUnits="userSpaceOnUse">
<stop stop-color="#61DCDF"/>
<stop offset="1" stop-color="#886CFF"/>
</linearGradient>
<linearGradient id="paint64_linear_1_533" x1="44.8045" y1="145.444" x2="44.1659" y2="151.751" gradientUnits="userSpaceOnUse">
<stop stop-color="#61DCDF"/>
<stop offset="1" stop-color="#886CFF"/>
</linearGradient>
<linearGradient id="paint65_linear_1_533" x1="64.4276" y1="145.444" x2="63.7889" y2="151.751" gradientUnits="userSpaceOnUse">
<stop stop-color="#61DCDF"/>
<stop offset="1" stop-color="#886CFF"/>
</linearGradient>
<linearGradient id="paint66_linear_1_533" x1="84.0545" y1="145.447" x2="83.4159" y2="151.754" gradientUnits="userSpaceOnUse">
<stop stop-color="#61DCDF"/>
<stop offset="1" stop-color="#886CFF"/>
</linearGradient>
<linearGradient id="paint67_linear_1_533" x1="103.669" y1="145.444" x2="103.03" y2="151.751" gradientUnits="userSpaceOnUse">
<stop stop-color="#61DCDF"/>
<stop offset="1" stop-color="#886CFF"/>
</linearGradient>
<linearGradient id="paint68_linear_1_533" x1="123.288" y1="145.444" x2="122.649" y2="151.751" gradientUnits="userSpaceOnUse">
<stop stop-color="#61DCDF"/>
<stop offset="1" stop-color="#886CFF"/>
</linearGradient>
</defs>
</svg>
