<svg width="53" height="52" viewBox="0 0 53 52" fill="none" xmlns="http://www.w3.org/2000/svg">
<ellipse cx="26.1645" cy="26" rx="26.0542" ry="26" fill="#4F77FF"/>
<path d="M16.1436 18.3232C16.1436 17.6498 16.3805 17.0943 16.8545 16.6566C17.3284 16.2188 17.9446 16 18.7029 16C19.4477 16 20.0503 16.2155 20.5107 16.6465C20.9847 17.0909 21.2217 17.67 21.2217 18.3838C21.2217 19.0303 20.9915 19.569 20.5311 20C20.0571 20.4444 19.4342 20.6667 18.6623 20.6667H18.642C17.8972 20.6667 17.2946 20.4444 16.8342 20C16.3738 19.5556 16.1436 18.9966 16.1436 18.3232ZM16.4076 36V22.5051H20.917V36H16.4076ZM23.4154 36H27.9248V28.4646C27.9248 27.9933 27.979 27.6296 28.0873 27.3737C28.2769 26.9158 28.5646 26.5286 28.9506 26.2121C29.3365 25.8956 29.8206 25.7374 30.4029 25.7374C31.9196 25.7374 32.6779 26.7542 32.6779 28.7879V36H37.1873V28.2626C37.1873 26.2694 36.7134 24.7576 35.7654 23.7273C34.8175 22.697 33.5649 22.1818 32.0076 22.1818C30.2607 22.1818 28.8998 22.9293 27.9248 24.4242V24.4646H27.9045L27.9248 24.4242V22.5051H23.4154C23.4425 22.936 23.4561 24.2761 23.4561 26.5253C23.4561 28.7744 23.4425 31.9326 23.4154 36Z" fill="white"/>
</svg>
