<svg width="60" height="63" viewBox="0 0 60 63" fill="none" xmlns="http://www.w3.org/2000/svg">
<path d="M45.7582 32.1962L44.3834 30.9212L45.7582 32.1962ZM28.0805 14.5185L29.3555 15.8933L28.0805 14.5185ZM54.1516 10.8548L56.0108 11.0979L54.1516 10.8548ZM49.422 6.12511L49.6651 7.98427L49.422 6.12511ZM16.2352 31.8005L17.9188 32.6258L16.2352 31.8005ZM28.4762 44.0415L27.6509 42.3579L28.4762 44.0415ZM20.5676 25.567C19.8353 24.8347 18.6482 24.8347 17.9159 25.567C17.1837 26.2992 17.1837 27.4864 17.9159 28.2186L20.5676 25.567ZM32.0581 42.3608C32.7903 43.093 33.9775 43.093 34.7097 42.3608C35.442 41.6285 35.4419 40.4413 34.7097 39.7091L32.0581 42.3608ZM16.1482 46.7802C16.8804 46.0479 16.8804 44.8608 16.1482 44.1285C15.4159 43.3963 14.2287 43.3963 13.4965 44.1285L16.1482 46.7802ZM6.42545 51.1996C5.69322 51.9318 5.69321 53.119 6.42545 53.8512C7.15768 54.5835 8.34487 54.5835 9.0771 53.8512L6.42545 51.1996ZM10.8449 41.4769C11.5771 40.7446 11.5771 39.5575 10.8449 38.8252C10.1126 38.093 8.92545 38.093 8.19321 38.8252L10.8449 41.4769ZM4.65768 42.3608C3.92545 43.093 3.92545 44.2802 4.65768 45.0124C5.38991 45.7446 6.5771 45.7446 7.30933 45.0124L4.65768 42.3608ZM21.4515 52.0835C22.1837 51.3512 22.1837 50.1641 21.4515 49.4318C20.7192 48.6996 19.532 48.6996 18.7998 49.4318L21.4515 52.0835ZM15.2643 52.9674C14.532 53.6996 14.532 54.8868 15.2643 55.619C15.9965 56.3512 17.1837 56.3512 17.9159 55.619L15.2643 52.9674ZM26.4896 52.879L28.3458 52.6138L26.4896 52.879ZM39.3943 44.2169L41.2505 43.9517L39.3943 44.2169ZM7.39767 33.7871L7.66283 31.931L7.66283 31.931L7.39767 33.7871ZM16.0597 20.8824L15.7946 22.7386L15.7946 22.7386L16.0597 20.8824ZM24.3749 41.7489L18.5278 35.9018L15.8762 38.5534L21.7233 44.4005L24.3749 41.7489ZM44.3834 30.9212C39.6493 36.0255 31.9626 40.2441 27.6509 42.3579L29.3016 45.725C33.6522 43.5922 41.8913 39.1228 47.1329 33.4712L44.3834 30.9212ZM17.9188 32.6258C20.0327 28.3141 24.2512 20.6274 29.3555 15.8933L26.8055 13.1438C21.1539 18.3854 16.6845 26.6245 14.5517 30.9751L17.9188 32.6258ZM52.2924 10.6116C51.5328 16.42 49.5145 25.3889 44.3834 30.9212L47.1329 33.4712C53.1217 27.0141 55.2394 16.9954 56.0108 11.0979L52.2924 10.6116ZM29.3555 15.8933C34.8878 10.7622 43.8567 8.74393 49.6651 7.98427L49.1788 4.26594C43.2813 5.03726 33.2626 7.15502 26.8055 13.1438L29.3555 15.8933ZM56.0108 11.0979C56.5384 7.06322 53.2135 3.73825 49.1788 4.26594L49.6651 7.98427C51.2575 7.77601 52.5007 9.01919 52.2924 10.6116L56.0108 11.0979ZM18.5278 35.9018C17.6199 34.9938 17.398 33.6881 17.9188 32.6258L14.5517 30.9751C13.2812 33.5666 13.9067 36.5839 15.8762 38.5534L18.5278 35.9018ZM21.7233 44.4005C23.6928 46.37 26.7101 46.9955 29.3016 45.725L27.6509 42.3579C26.5886 42.8787 25.2829 42.6568 24.3749 41.7489L21.7233 44.4005ZM17.9159 28.2186L32.0581 42.3608L34.7097 39.7091L20.5676 25.567L17.9159 28.2186ZM13.4965 44.1285L6.42545 51.1996L9.0771 53.8512L16.1482 46.7802L13.4965 44.1285ZM8.19321 38.8252L4.65768 42.3608L7.30933 45.0124L10.8449 41.4769L8.19321 38.8252ZM18.7998 49.4318L15.2643 52.9674L17.9159 55.619L21.4515 52.0835L18.7998 49.4318ZM32.9419 17.612C30.2571 20.2969 30.2571 24.6499 32.942 27.3347L35.5936 24.6831C34.3732 23.4627 34.3732 21.4841 35.5936 20.2637L32.9419 17.612ZM32.942 27.3347C35.6268 30.0196 39.9798 30.0196 42.6647 27.3347L40.013 24.6831C38.7926 25.9035 36.814 25.9035 35.5936 24.6831L32.942 27.3347ZM42.6647 27.3347C45.3495 24.6499 45.3495 20.2969 42.6647 17.612L40.013 20.2637C41.2334 21.4841 41.2334 23.4627 40.013 24.6831L42.6647 27.3347ZM42.6647 17.612C39.9798 14.9272 35.6268 14.9272 32.9419 17.612L35.5936 20.2637C36.814 19.0433 38.7926 19.0433 40.013 20.2637L42.6647 17.612ZM37.3614 45.0124L29.4064 52.9674L32.0581 55.619L40.013 47.6641L37.3614 45.0124ZM28.3458 52.6138L27.2851 45.1892L23.5728 45.7195L24.6334 53.1441L28.3458 52.6138ZM36.831 39.5323L37.5381 44.4821L41.2505 43.9517L40.5433 39.002L36.831 39.5323ZM29.4064 52.9674C29.0422 53.3315 28.4186 53.1237 28.3458 52.6138L24.6334 53.1441C25.1433 56.7131 29.5088 58.1683 32.0581 55.619L29.4064 52.9674ZM40.013 47.6641C40.9867 46.6903 41.4452 45.315 41.2505 43.9517L37.5381 44.4821C37.566 44.6768 37.5005 44.8733 37.3614 45.0124L40.013 47.6641ZM12.6126 20.2637L4.65763 28.2187L7.30928 30.8703L15.2642 22.9154L12.6126 20.2637ZM7.1325 35.6433L14.5571 36.704L15.0875 32.9916L7.66283 31.931L7.1325 35.6433ZM21.2746 19.7334L16.3249 19.0263L15.7946 22.7386L20.7443 23.4457L21.2746 19.7334ZM4.65763 28.2187C2.10837 30.7679 3.56354 35.1334 7.1325 35.6433L7.66283 31.931C7.15298 31.8581 6.9451 31.2345 7.30928 30.8703L4.65763 28.2187ZM15.2642 22.9154C15.4033 22.7763 15.5998 22.7108 15.7946 22.7386L16.3249 19.0263C14.9617 18.8315 13.5863 19.29 12.6126 20.2637L15.2642 22.9154Z" fill="#4F77FF"/>
</svg>
