<svg width="54" height="52" viewBox="0 0 54 52" fill="none" xmlns="http://www.w3.org/2000/svg">
<ellipse cx="27.0141" cy="26" rx="26.0542" ry="26" fill="#4F77FF"/>
<path d="M40.0415 18.3677C39.0726 18.7692 38.0402 19.0354 36.9638 19.1646C38.0711 18.54 38.9163 17.5585 39.3136 16.3754C38.2812 16.9569 37.1413 17.3677 35.9265 17.5969C34.9463 16.6108 33.5491 16 32.0249 16C29.0678 16 26.6871 18.2677 26.6871 21.0477C26.6871 21.4477 26.7229 21.8323 26.8108 22.1985C22.3702 21.9938 18.4409 19.9831 15.8013 16.92C15.3405 17.6754 15.0702 18.54 15.0702 19.4708C15.0702 21.2185 16.0228 22.7677 17.4427 23.6646C16.5846 23.6492 15.7427 23.4138 15.0295 23.0431C15.0295 23.0585 15.0295 23.0785 15.0295 23.0985C15.0295 25.5508 16.8809 27.5877 19.3089 28.0569C18.8741 28.1692 18.4002 28.2231 17.9085 28.2231C17.5665 28.2231 17.2213 28.2046 16.8972 28.1369C17.5893 30.1354 19.5531 31.6046 21.8882 31.6523C20.071 32.9954 17.7635 33.8046 15.2656 33.8046C14.8276 33.8046 14.4074 33.7862 13.9873 33.7354C16.3533 35.1769 19.1574 36 22.1813 36C32.0103 36 37.3839 28.3077 37.3839 21.64C37.3839 21.4169 37.3758 21.2015 37.3644 20.9877C38.4245 20.2769 39.3152 19.3892 40.0415 18.3677Z" fill="white"/>
</svg>
